<?xml version="1.0" encoding="UTF-8"?><svg id="Layer_2" xmlns="http://www.w3.org/2000/svg" width="683" height="563" viewBox="0 0 683 563"><defs><style>.cls-1{fill:#161622;}.cls-1,.cls-2,.cls-3{stroke-width:0px;}.cls-2{fill:#fdfbf3;}.cls-3{fill:#c6b8af;}</style></defs><g id="Layer_1-2"><path class="cls-1" d="M0,140v-30c3.4-4-.6-10.5,2.9-14.6,3-3.6,8.9-2.4,12.9-2.5,12-.1,23.6.2,35.3-3.1,26.1-7.5,40.6-28.2,60-45.3,20.1-17.7,46.3-24,72.1-15.9,24.8,7.8,39.6,26.5,54.4,46.7,49.9-22.8,101.2-27.8,154.3-12,8-15.3,19.5-29.2,32.6-40.3,14.2-12.1,29.4-16.7,46.6-22.9h20c.7,2.4,18.9,5.4,22.7,7,9.4,4,17.5,9.6,25.1,16.3,16.1,14.1,30.9,29.9,49.2,41.1,16.7,10.2,35.5,16.5,54.9,18.9,8.4,1,25.9-2.4,33.4,1.4,7.8,4,3.8,15.1,6.6,22.3v22c-1.4.6-2,1.5-1.9,3.1.7,7.3-1.1,14.3-2.9,21.3-5.9,22.7-16.6,42.9-31.7,60.7-9.4,11.1-20,20.8-32.3,28.7-2.8,1.8-4.6,3.3-3.6,7.5,4.3,18.6,6.3,37.4,5.7,56.6-.6,21.2-3.2,41.8-9.1,62.3-11.6,40.5-32.2,75.8-60.8,106.5-17.4,18.7-36.9,34.7-58.9,47.9-33.5,20.1-69.4,32.9-108.3,37.7-4.5.6-9.2-.4-13.4,1.8h-54c-.4-1.3-1.5-1-2.4-1.2-26.5-3.4-52.1-9.9-76.9-19.7-31.1-12.4-59.6-29.1-84.5-51.5-15.9-14.2-29.5-30.4-41-48.4-11.3-17.7-20.8-36.4-27.1-56.4-8.6-27.5-12.6-55.7-11.3-84.7.7-15.8,1.9-31.4,5.5-46.8.7-3.2.2-4.8-2.6-6.3-15.6-8.6-28.8-20.2-39.5-34.3-13.4-17.6-23.9-36.7-28.5-58.7-1-5-.7-10.4-3.6-15ZM199,69.9s.1,0,.1,0c-.4-.4-.7-.7-1.1-1.1h0c-.4-.3-.7-.6-1.1-1h.2c-9.8-11.1-24.6-17.6-39.4-16.7-18.3,1.1-30.6,13.2-42.6,25.7-12.6,13.2-26.2,25.1-43,32.7-7.9,3.6-16.3,6.1-24.9,7.5-4.7.7-18.5-1.4-21.9,1.7-3.9,37.2,19.3,77,38,89.8,0-12.8-2.3-21.3,11.5-25.5,11.1-3.4,26-.8,36.1-5.3,6,0,18.5,2.7,23.9.2,5.3-2.5,4.8-11.3,5.8-16.9,2.7-15.1,5.2-30,7-45.2,1.3-11,2.5-30.1,15.5-34.1,14.6-4.6,23,12.9,29.4,22.6,4.1-3.3,17.3-10.6,19-15.6,2-5.7-7.4-14.6-11.4-17.8-.4-.4-.8-.7-1.1-1.1ZM189,490.1h-.2c.4.3.8.6,1.2.9,17.2,16.2,46.1,26.5,68.2,33.6,23.3,7.5,47.9,12.2,72.4,13.3,84.7,3.8,165.5-34.5,216.2-102.3,25.6-34.3,41-74.7,44.5-117.4.9-11.3,1-22.6-.2-33.9-.8-7.9-.2-19.7-6.7-25.4-7.8-6.7-23-10-32.2-15.1-7-4-15.8-12.6-24.2-12.6-12.7-6.4-52.2-23-61.7-4.4-4.5,8.6-1.7,21.5-3.3,31.1-2,12.3-7.6,23.1-12.9,34.2-4.5,2.8-7.7,9.6-11.5,13.4-4.2,4.1-8.9,7.7-13.9,10.7-9.9,6-21.3,10.1-32.8,12.1-30.8,5.3-58.6-1.7-83.8-19.3-10.3-11.2-18.7-23.1-23.2-37.8-3.4-10.9-1.7-26.6-9.9-35.4-7.7-8.3-23.5-9.4-32.6-2.8-11.4,8.2-9.3,24.6-15.6,36.1,13.9-3.3,26.5-1.4,38.3,6-9.6.4-18.8,2.5-28.9,4.8,18.6,12.3,33.5,23.9,44.5,43.8,11.5,20.7,13.4,42.4,8.4,65.4-3.1,6.2-5.1,13-10,18.9,23,1.4,45.8-11.1,58.6-30,4.1-3.5-10.4-18.1,5.1-19.1,9.8-.6,20.7,15.1,25.4,22.4,4.7,7.3,14.7,23,4.9,30.5-12.3,9.4-16.8-11-21.8-17.2-16,20.6-36.5,31.9-62.2,36-14.2,2.3-28.9,2.4-43.2,3.7-7.1.7-14.3,1.3-21.5.7-5-.4-11.7-3-16.5-.6.3-.2,1.3.3.9-.8-.3.3-.6.5-.8.8,2.6,1.9,5.2,3.9,7.8,5.8,10.8,10.4,24.4,15.8,39,21-18,7.4-38.5,3.9-55.5-4.9-9.1-4.7-15.6-11.2-23.3-17.7-7.6-6.5-17.5-9.3-27-13.5-32.3-26-36.2-55.3-25.1-93.9,1.9-1.8,2.6-4.3,3.8-6.8-12.4-4.8-23.2-12-32.8-20.8-2.4,3.4-.5,6.6-.7,9.7-1.7,72.2,36.7,134.7,93.6,176.2v-.3c0,.8.6,1,1.2,1ZM492,183c.2.2.3.4.5.6,0-.2,0-.4,0-.6-.2,0-.4,0-.6,0,1.7-3.1-8.3-18.1-9.9-21.3-3.4-7-6.1-17.2-11.7-22.8-10.8-10.9-31.2-18.5-46.2-15.1,2.4-31.7,27.7-76.8,65-71.4-13.8,57,16.8,132.5,66.8,163.7,6.4,5.5,14.6,10.5,22.4,13.8,8.1,3.4,11.3-.5,18.5-5.4,13.9-9.4,26.5-20.5,36.7-33.9,10-13.2,17.7-28.5,21.4-44.7,1.9-8.2,2.8-16.8,3.4-25.1.7-10.2-1.8-9.9-11.4-9.6-25.2-5.4-49.1-11.6-71.4-25-22.1-13.2-38.2-32.9-58.7-48-20.7-15.3-44.9-15.8-66.7-2.3-20.6,12.8-29.2,31.5-42.6,50.3-5.8,8.2-8.4,5.4-18,2.5-13.1-4-26.5-6.8-40.1-8.1-26.5-2.6-53.4.2-78.7,8.7-23,7.7-44.6,19.4-63,35.3-8.8,7.6-16.9,16.1-24.2,25.1-6,7.4-17.4,19-18.5,28.8,24.9,4.7,49.7,8.9,67.8,28.5,16.3-8,32-7.7,47.7.6,20.4-24.1,58.7-30.5,88.3-33.1,34.5-3,67.9-.3,102.1,3.5,7,1.7,14,3.3,21,5ZM269.8,368.5c0-31.7-28.3-69.6-60.4-75-31.9-5.4-60.2,29.1-67.7,56.8-4.4,16.1-2.8,33.2,8,46.5,13,16.1,27.9,14.8,46,10.6,18.3-4.2,34.3,9.3,52.5-1.4,12.9-7.5,21-22.8,21.6-37.5ZM313.7,249.4c0,7.1,4.6,17.3,13.2,12.5,6.2-3.5,5.1-14.6,6.9-20.4,2.6-8.5,7.6-15.8,14.6-21.3,5.4-4.3,14.4-5.7,18.9-10.3,5.9-6,1.1-12.5-6.2-13.3-7.9-.9-18.8,6.3-25,10.8-13.7,10.1-21.1,25.3-22.4,42.2ZM102,243.4c0,6.3,3.5,11.2,8.3,11.6,4.9.4,8.9-2.8,9.6-8.6,2-17.5,12-27.5,28.7-31.5,4.3-1,6.8-3.8,6.5-8.6-.4-4.5-3.2-6.7-7.3-7.4-1.6-.3-3.4-.4-5-.2-22.2,3.9-38.8,22.1-40.8,44.6ZM459.4,197c-10.1,0-12.9,7.5-1.9,8.9,12.4,1.6,15.7-8.9,1.9-8.9ZM81.4,197c-10.2,0-10.2,7.2-1,8.9,10.8,2,13-8.3,1-8.9Z"/><path class="cls-2" d="M556,216.1c-50-31.3-80.7-106.7-66.8-163.7-37.3-5.4-62.6,39.8-65,71.4-1.3,4.3,19.4,19,22.8,22.6,9.2,9.6,17.3,20.2,24.1,31.6-34.2-3.8-67.7-6.5-102.1-3.5-29.6,2.6-67.9,9-88.3,33.1-15.7-8.2-31.4-8.6-47.7-.6-18.1-19.5-42.9-23.8-67.8-28.5,1.1-9.8,12.5-21.4,18.5-28.8,7.3-9.1,15.4-17.5,24.2-25.1,18.4-15.9,40-27.6,63-35.3,25.3-8.5,52.2-11.3,78.7-8.7,13.6,1.3,27,4.1,40.1,8.1,9.6,2.9,12.1,5.6,18-2.5,13.4-18.9,22-37.5,42.6-50.3,21.8-13.5,45.9-13,66.7,2.3,20.5,15.1,36.7,34.8,58.7,48,22.3,13.4,46.2,19.7,71.4,25-.5,18-22.7,39-35.7,49.3-8,6.4-17,11.5-26.6,15.1-9.9,3.7-20.1,3.4-30.1,6,9.1,9.2,19.3,16.3,30.9,22.2-9.2,7.7-19.4,7.5-29.5,12.4Z"/><path class="cls-2" d="M450.1,292c5.3-11.1,10.8-21.9,12.9-34.2,1.6-9.5-1.2-22.4,3.3-31.1,9.6-18.6,49-1.9,61.7,4.4,13.2,41.9,18.4,80.7,2.4,123-13.5,35.6-39.5,65.6-70.9,86.9-35.3,24-76.9,34.6-119.3,32.9-21.1-.8-42.5-5.6-61.4-15.3-5.3-2.7-10.5-7.5-16.1-9.2-4.4-1.4-9.4-.6-13.9-1-5-.4-10-1.2-14.8-2.5-5.7-1.6-12.1-6.4-18.1-5.9-2.6-1.9-5.2-3.9-7.8-5.8h0c4.8-2.4,11.5.2,16.5.6,7.2.5,14.3,0,21.5-.7,14.3-1.3,29-1.4,43.2-3.7,25.7-4.1,46.1-15.4,62.2-36,5,6.2,9.5,26.6,21.8,17.2,9.8-7.5-.2-23.2-4.9-30.5-4.7-7.3-15.6-23-25.4-22.4-15.5,1-1,15.6-5.1,19.1-4,.4-6.7,3.4-10.1,5.1-12.2,6.2-25,8.4-38.5,6,5-22.9,3-44.7-8.4-65.4-11-19.9-26-31.5-44.5-43.8,10.1-2.3,19.3-4.4,28.9-4.8-11.8-7.4-24.4-9.2-38.3-6,6.3-11.4,4.2-27.9,15.6-36.1,9.1-6.6,24.9-5.4,32.6,2.8,8.2,8.8,6.5,24.5,9.9,35.4,4.6,14.7,13,26.6,23.2,37.8-2.6,7.9,25.5,23.4,31,26,15.1,7.2,31.7,9.5,48.3,7.9,14-1.3,27.8-5.1,39.3-13.5,10-7.3,25.3-23.8,23.4-37.3Z"/><path class="cls-3" d="M215.9,440.1c6.1-.5,12.5,4.3,18.1,5.9,4.8,1.4,9.8,2.1,14.8,2.5,4.5.4,9.6-.4,13.9,1,5.6,1.8,10.8,6.5,16.1,9.2,18.9,9.7,40.2,14.5,61.4,15.3,42.4,1.6,84-8.9,119.3-32.9,31.3-21.3,57.4-51.3,70.9-86.9,16-42.3,10.8-81.1-2.4-123,8.4,0,17.2,8.7,24.2,12.6,9.2,5.2,24.4,8.4,32.2,15.1,6.5,5.7,5.9,17.5,6.7,25.4,1.2,11.3,1.1,22.6.2,33.9-3.4,42.7-18.8,83.1-44.5,117.4-50.7,67.8-131.4,106.2-216.2,102.3-24.5-1.1-49.1-5.8-72.4-13.3-22.1-7.1-51-17.5-68.2-33.6.6-1.6-.6-.9-1.2-.9,0,0,.2,0,.2,0,0-.6-.4-1-1.1-1.1,0,0,0,.3,0,.2-2.2-9.7-16.4-20.4-22-28.8-5-7.5-19.2-25.9-16.7-35.6,9.6,4.2,19.4,7.1,27,13.5,7.7,6.5,14.2,13,23.3,17.7,17,8.9,37.5,12.3,55.5,4.9-14.6-5.3-28.2-10.7-39-21Z"/><path class="cls-2" d="M269.8,368.5c-.6,14.8-8.7,30-21.6,37.5-18.2,10.7-34.2-2.8-52.5,1.4-18.1,4.1-32.9,5.5-46-10.6-10.8-13.4-12.3-30.4-8-46.5,7.5-27.7,35.8-62.1,67.7-56.8,32.1,5.4,60.5,43.3,60.4,75ZM216.5,337.4c0,10.4,2,24.6,7.5,33.8,6.1,10.2,21.2,10.7,25.4-1.8,3.6-10.6-8.9-27.4-15.1-35.5-6.8-8.8-16.8-9.4-17.9,3.5ZM189.1,339.7c0-14.5-9.6-15.7-17.5-4.7-5.7,7.9-15.6,22.4-13.8,32.6,1.7,9.7,13.3,15.4,21,8.4,8.1-7.3,9.9-26,10.3-36.2Z"/><path class="cls-2" d="M110.9,177.7c-10.1,4.6-24.9,1.9-36.1,5.3-13.8,4.3-11.5,12.7-11.5,25.5-18.7-12.8-42-52.6-38-89.8,3.4-3.1,17.2-1,21.9-1.7,8.6-1.3,17-3.9,24.9-7.5,16.8-7.6,30.4-19.5,43-32.7,12-12.5,24.3-24.6,42.6-25.7,14.9-.9,29.7,5.6,39.4,16.7-2.5.8-4-1.1-5.9-2-12.8-5.9-25.6-7.7-38.7-.7-11.5,6.2-17,16.7-20.7,28.6-3.5,11.5-4.3,23.4-6.4,35.1-3,16.9-8.2,33.1-14.7,48.9Z"/><path class="cls-3" d="M556,216.1c10.1-4.9,20.3-4.7,29.5-12.4-11.7-5.9-21.8-13-30.9-22.2,10-2.6,20.2-2.3,30.1-6,9.6-3.6,18.6-8.7,26.6-15.1,13-10.3,35.1-31.3,35.7-49.3,9.6-.3,12.1-.6,11.4,9.6-.6,8.4-1.5,17-3.4,25.1-3.7,16.1-11.4,31.5-21.4,44.7-10.2,13.4-22.8,24.5-36.7,33.9-7.3,4.9-10.5,8.8-18.5,5.4-7.8-3.3-16-8.3-22.4-13.8Z"/><path class="cls-3" d="M110.9,177.7c6.5-15.8,11.7-32,14.7-48.9,2.1-11.7,2.9-23.6,6.4-35.1,3.6-11.9,9.1-22.4,20.7-28.6,13-6.9,25.9-5.2,38.7.7,1.9.9,3.4,2.8,5.9,2,0,0-.2,0-.2,0,0,.8.3,1.1,1.1,1.1,0,0,0,0,0,0,0,.7.4,1,1.1,1.1,0,0-.1,0-.1,0,.4.4.8.7,1.1,1.1,4,3.2,13.3,12.1,11.4,17.8-1.7,5-14.9,12.3-19,15.6-6.4-9.7-14.7-27.2-29.4-22.6-13.1,4.1-14.3,23.1-15.5,34.1-1.8,15.2-4.3,30.1-7,45.2-1,5.6-.5,14.4-5.8,16.9-5.4,2.5-17.9-.2-23.9-.2Z"/><path class="cls-2" d="M149,424.9c-2.4,9.7,11.7,28.1,16.7,35.6,5.6,8.4,19.8,19,22,28.8-56.9-41.6-95.3-104.1-93.6-176.2,1.3,0,2,.9,2.8,1.7,7.3,8.2,16.5,13.2,27,16.2-11.1,38.7-7.2,67.9,25.1,93.9Z"/><path class="cls-3" d="M450.1,292c1.8,13.5-13.5,30-23.4,37.3-11.5,8.4-25.3,12.2-39.3,13.5-16.6,1.5-33.1-.7-48.3-7.9-5.5-2.6-33.6-18-31-26,25.2,17.5,53,24.6,83.8,19.3,11.5-2,22.8-6,32.8-12.1,5-3,9.7-6.6,13.9-10.7,3.9-3.8,7.1-10.5,11.5-13.4Z"/><path class="cls-2" d="M313.7,249.4c1.3-16.8,8.7-32,22.4-42.2,6.1-4.5,17.1-11.7,25-10.8,7.3.8,12.1,7.3,6.2,13.3-4.6,4.6-13.6,6.1-18.9,10.3-7,5.5-11.9,12.9-14.6,21.3-1.8,5.8-.7,17-6.9,20.4-8.6,4.8-13.2-5.4-13.2-12.5Z"/><path class="cls-3" d="M471,178c-6.8-11.4-14.9-22-24.1-31.6-3.4-3.5-24.1-18.3-22.8-22.6,15.1-3.4,35.4,4.2,46.2,15.1,5.5,5.6,8.2,15.8,11.7,22.8,1.6,3.2,11.7,18.2,9.9,21.3h0c-7-1.8-14-3.4-21-5.1Z"/><path class="cls-2" d="M102,243.4c2-22.5,18.6-40.7,40.8-44.6,1.6-.3,3.3-.1,5,.2,4.1.7,6.9,2.9,7.3,7.4.4,4.8-2.1,7.5-6.5,8.6-16.7,4-26.7,14-28.7,31.5-.7,5.8-4.6,9-9.6,8.6-4.9-.4-8.4-5.3-8.3-11.6Z"/><path class="cls-3" d="M289.1,388.9c13.5,2.5,26.3.3,38.5-6,3.4-1.7,6.1-4.7,10.1-5.1-12.7,18.9-35.5,31.4-58.6,30,4.9-5.9,6.9-12.7,10-18.9Z"/><path class="cls-3" d="M123.9,331c-10.5-2.9-19.7-7.9-27-16.2-.8-.9-1.5-1.8-2.8-1.7.3-3.1-1.7-6.3.7-9.7,9.7,8.8,20.4,16,32.8,20.8-1.2,2.5-1.9,5-3.8,6.8Z"/><path class="cls-2" d="M459.4,197c13.8,0,10.5,10.6-1.9,8.9-11-1.4-8.2-8.9,1.9-8.9Z"/><path class="cls-2" d="M81.4,197c12,.7,9.8,10.9-1,8.9-9.1-1.7-9.2-8.9,1-8.9Z"/><path class="cls-2" d="M188.8,490.1c.6,0,1.8-.6,1.2.9-.4-.3-.8-.6-1.2-.9Z"/><path class="cls-2" d="M198.1,69c-.8,0-1.1-.3-1.1-1.1.4.4.7.7,1.1,1.1Z"/><path class="cls-2" d="M199.1,70c-.7,0-1.1-.4-1.1-1.1.4.4.7.7,1.1,1.1Z"/><path class="cls-2" d="M200.1,71c-.4-.4-.8-.7-1.1-1.1.4.4.8.7,1.1,1.1Z"/><path class="cls-3" d="M491.9,183.1c.2,0,.4,0,.6,0,0,.2,0,.4,0,.6-.2-.2-.3-.4-.5-.6,0,0,0,.1,0,.1Z"/><path class="cls-2" d="M208.1,434.3c.3-.3.6-.5.8-.8.5,1.1-.5.6-.9.8,0,0,0,0,0,0Z"/><path class="cls-2" d="M187.9,489.1c.7,0,1,.4,1.1,1.1-.6,0-1.1-.3-1.1-1.1Z"/><path class="cls-1" d="M216.5,337.4c1.1-12.8,11.1-12.3,17.9-3.5,6.2,8.1,18.7,24.9,15.1,35.5-4.2,12.4-19.3,12-25.4,1.8-5.5-9.1-7.4-23.3-7.5-33.8Z"/><path class="cls-1" d="M189.1,339.7c-.4,10.2-2.2,28.9-10.3,36.2-7.7,7-19.3,1.4-21-8.4-1.8-10.2,8.2-24.7,13.8-32.6,7.9-11,17.5-9.7,17.5,4.7Z"/></g></svg>