<?xml version="1.0" encoding="UTF-8"?>
<svg id="Layer_1" data-name="Layer 1" xmlns="http://www.w3.org/2000/svg" width="682.536" height="562.899" viewBox="0 0 682.536 562.899">
  <defs>
    <style>
      .cls-1 {
        fill: #c8b8ad;
      }

      .cls-1, .cls-2, .cls-3, .cls-4, .cls-5 {
        stroke-width: 0px;
      }

      .cls-2 {
        fill: #fdfdfd;
      }

      .cls-3 {
        fill: #fffdf5;
      }

      .cls-4 {
        fill: #1a1a1a;
      }

      .cls-5 {
        fill: #fff;
      }
    </style>
  </defs>
  <path class="cls-3" d="M461.578,29.586c7.432-1.494,14.954-4.529,22.276-4.105,9.954.576,20.144,3.205,28.284,9.592,9.895,7.764,19.474,15.997,28.642,24.609,26.173,24.584,56.155,41.704,91.745,48.32,4.682.87,9.31,2.037,13.963,3.066-.924,9.097-1.613,15.528-6.673,22.733-15.286,21.773-35.787,41.26-62.237,47.49-5.874,1.384-13.123.015-19.112.914-.241.406.631.736-1.496,1.017,9.845,7.077,21.712,12.172,30.059,21.698-9.151,6.925-21.898,12.377-33.512,9.969-51.264-42.31-74.072-96.058-65.92-162.984-14.526-.774-27.256,4.637-37.888,15.005-14.317,13.961-20.772,31.952-25.093,50.914-.435,1.909-.598,3.879-.888,5.821,1.381.836,6.728-.193,7.935.937,3.011,2.818,8.738,8.773,11.847,11.492,13.799,12.069,17.673,26.012,27.062,41.752-11.161-1.223-22.296-3.068-33.488-3.525-17.379-.711-34.797-.645-52.197-.568-8.094.036-16.227.496-24.268,1.411-24.154,2.748-47.483,8.391-68.273,21.693-4.406,2.819-8.218,6.567-12.861,10.341-9.396-5.845-20.565-7.127-32.091-5.279-4.141.664-8.067,2.592-12.154,3.711-1.309.359-3.442.573-4.149-.159-12.403-12.838-28.262-18.696-45.084-22.625-6.933-1.619-13.92-3.009-21.984-4.74,2.74-4.734,5.098-9.547,8.115-13.905,27.264-39.377,63.314-66.389,110.139-78.438,13.416-3.452,26.937-5.077,40.724-5.86,25.589-1.454,50.106,3.334,74.201,11.296,6.504,2.149,6.186,1.937,9.598-4.079,5.375-9.476,11.241-18.674,16.9-27.99,1.318-1.754,2.635-3.508,3.953-5.262,2.056-2.066,4.091-4.154,6.172-6.195,8.037-7.884,16.773-14.702,27.755-18.064l-.002-.004h0Z"/>
  <path class="cls-3" d="M288.72,388.79c2.763-11.796,3.96-23.61,2.012-35.745-3.252-20.256-12.881-37.345-26.649-51.879-7.867-8.305-17.67-14.775-26.889-22.306,8.744-1.381,17.798-2.811,27.781-4.388-12.272-7.138-24.682-8.774-37.181-6.031,1.948-7.66,4.045-15.151,5.735-22.732,2.357-10.569,11.52-17.051,24.273-16.984,9.632.051,20.871,7.348,22.011,17.708,1.5,13.637,3.607,27.329,10.881,39.346,4.195,6.931,9.27,13.329,13.949,19.967,5.247,5.705,10.495,9.158,15.742,14.863.726.677,4.738,4.327,5.521,4.93,22.608,17.399,40.24,15.255,67.473,10.022,20.939-4.024,21.335-5.929,48.035-26.238,2.367-4.708,6.94-13.333,8.353-18.52,9.513-16.023,14.157-33.23,14.033-51.984-.132-19.95,13.371-22.883,26.279-19.26,10.211,2.866,20.448,5.641,30.635,8.591,2.345.679,4.53,1.912,6.789,2.891,1.01,2.993,6.821,4.866,7.922,7.826,11.362,30.516,11.867,68.634,3.963,100.127-13.414,53.449-51.841,92.965-99.333,119.2-36.442,20.131-76.757,22.108-117.904,17.318-21.843-2.543-39.147-9.204-57.44-21.637-1.755-1.193-6.203-2.313-8.422-2.375-11.732-.326-21.352-1.557-32.175-6.694-2.648-1.257-6.145-3.787-8.664-4.866-2.155-1.775-4.31-3.551-7.29-6.006,3.974,0,6.985.033,9.994-.006,10.589-.136,21.192,0,31.762-.525,12.264-.608,24.571-1.256,36.728-2.871,17.619-2.341,34.377-7.659,48.276-19.299,5.897-4.939,10.864-10.987,16.506-16.791,1.674,3.572,3.327,7.307,5.17,10.946.884,1.745,1.77,4.125,3.282,4.786,3.281,1.436,7.258,3.247,10.413,2.533,4.488-1.017,6.811-5.594,6.156-10.176-.661-4.627-1.719-9.67-4.221-13.464-5.728-8.687-12.218-16.911-18.893-24.91-1.962-2.352-5.458-3.632-8.476-4.842-3.904-1.565-7.874-.302-9.21,3.456-1.017,2.863.084,6.541.504,9.823.189,1.481,1.013,2.881,1.549,4.318-2.395,2.25-7.475,7.14-10.66,8.918-12.348,6.892-30.301,9.532-38.319,2.963v-.002h-.001Z"/>
  <path class="cls-1" d="M215.449,439.938c2.883.76,5.967,1.099,8.614,2.355,10.823,5.137,22.332,6.277,34.063,6.603,2.22.062,4.807.412,6.561,1.605,18.292,12.432,38.515,19.606,60.358,22.149,41.147,4.79,80.46-1.46,116.902-21.592,47.492-26.236,80.747-64.355,94.162-117.804,7.904-31.493,5.795-62.722-5.566-93.238-1.102-2.959-2.032-5.982-3.041-8.976,4.614,2.084,9.309,4.006,13.827,6.281,13.013,6.553,25.784,13.622,39.015,19.692,4.829,2.216,7.541,4.87,8.019,9.913,1.107,11.689,3.214,23.406,2.994,35.075-.551,29.186-4.794,57.81-17.18,84.688-.405.879-3.864,7.806-4.102,8.761-8.197,14.194-12.399,22.896-21.377,36.577-12.063,18.38-27.357,34.039-44.509,47.832-.633.509-1.102,1.221-1.648,1.838-11.745,7.992-23.172,16.508-35.301,23.868-26.734,16.223-56.33,25.055-86.881,29.933-25.247,4.031-50.739,3.203-76.219-.408-31.966-4.53-61.974-14.595-90.472-29.378-8.36-4.336-16.105-9.858-24.131-14.836-4.452-4.259-8.909-8.671-12.927-13.182-12.531-14.067-22.713-29.715-29.678-47.167-.548-1.374,1.807-4.147,1.723-5.706,7.646,3.034,15.307,6.03,22.919,9.149,1.003.411,1.863,1.351,2.599,2.209,17.197,20.051,39.184,29.422,65.385,28.86,4.6-.099,9.162-1.98,13.773-3.714-13.654-5.723-27.161-11.081-37.88-21.389h-.001v.002h-.001Z"/>
  <path class="cls-3" d="M140.473,350.864c6.507-18.104,16.276-33.821,31.494-46.147,18.276-14.803,40.005-16.09,59.07-2.196,16.167,11.783,28.325,27.041,35.024,45.873,7.051,19.823,3.988,38.067-12.543,53.36-9.716,8.988-22.218,11.682-35.242,7.491-10.07-3.241-19.538-3.876-29.84.104-10.665,4.12-21.24,1.282-30.596-5.242-2.674-1.865-5.051-4.157-7.564-6.254-11.053-14.039-13.813-29.809-9.803-46.991v.002h0ZM214.84,339.218c2.624,10.132,4.86,20.39,8.096,30.322,1.047,3.212,4.242,6.428,7.297,8.125,5.262,2.924,10.608,1.315,14.977-2.719,4.322-3.991,5.969-10.16,3.258-15.422-4.622-8.972-9.85-17.634-14.916-26.373-2.59-4.467-6.22-7.47-11.765-6.294-3.902.828-5.822,5.186-6.946,12.36h0ZM188.725,339.659c0-1.165.015-2.33-.003-3.495-.064-4.085-1.216-7.866-5.36-9.227-3.924-1.289-7.37.702-9.322,4.081-5.518,9.553-11.257,19.04-15.869,29.033-3.3,7.151,1.248,15.634,8.383,18.255,6.537,2.402,13.187-.949,15.654-8.918"/>
  <path class="cls-3" d="M61.634,208.67c-19.556-19.06-32.445-41.616-36.056-68.995-.562-4.262-.783-8.57-1.161-12.856.136-2.767.273-5.533.432-8.772,2.997,0,5.638.198,8.239-.039,6.58-.599,13.305-.713,19.684-2.23,26.281-6.251,47.259-20.86,63.958-41.878.695-.652,1.39-1.305,2.085-1.957l7.038-6.879-.26-.184.252.196c1.251-1.057,2.503-2.113,3.754-3.17,5.333-3.003,10.666-6.006,15.999-9.009,2.649-.642,5.298-1.284,7.947-1.926,2.679-.102,5.358-.204,8.037-.306,13.279,1.256,24.888,6.186,34.369,15.718,1.371,1.378,2.497,2.998,3.737,4.507-1.575-.899-3.742,5.886-5.297,4.954-14.408-8.633-27.915-15.636-43.059-6.843-10.41,6.045-14.348,12.809-16.964,24.133-3.25,14.069-5.214,28.641-8.872,42.587-3.737,14.244-9.937,28.533-15.938,42.052-7.172.69-14.412.985-21.498,2.184-6.564,1.111-13.066,2.877-19.397,4.959-3.863,1.271-5.715,4.538-5.804,8.91-.101,4.955-.791,9.898-1.225,14.846h0s0-.002,0-.002Z"/>
  <path class="cls-1" d="M553.517,214.888c11.32-.17,21.419-3.72,30.57-10.645-10.185-7.322-20.03-14.399-29.875-21.477.241-.406.481-.812.722-1.218,5.988-.899,12.074-1.385,17.949-2.769,26.45-6.23,46.423-22.022,61.709-43.795,5.058-7.205,7.99-15.902,11.895-23.917,11.745-.673,11.583-.678,11.21,10.671-.893,27.163-10.04,51.422-27.166,72.193-8.153,9.889-18.593,17.892-27.997,26.749-5.311,3.331-10.543,6.799-15.983,9.904-1.492.851-4.081,1.462-5.354.743-9.342-5.274-18.478-10.915-27.679-16.44h0Z"/>
  <path class="cls-1" d="M109.558,177.771c4.678-13.997,10.089-27.802,13.825-42.046,3.658-13.945,5.193-28.434,8.443-42.504,2.616-11.324,8.338-21.195,18.749-27.24,15.144-8.794,29.981-6.425,44.389,2.208,1.555.932,3.148,1.802,4.723,2.7,3.807,4.935,7.714,9.801,11.311,14.885.52.735.007,3.053-.795,3.736-5.793,4.929-11.785,9.625-17.777,14.445-3.971-5.559-7.374-11.076-11.523-15.96-6.7-7.886-16.385-9.988-22.276-3.943-4.16,4.268-7.474,10.397-8.749,16.224-2.612,11.936-3.37,24.265-5.319,36.363-2.074,12.872-4.543,25.684-7.164,38.456-.235,1.143-2.827,2.509-4.364,2.56-7.817.258-15.646.118-23.472.117h-.001Z"/>
  <path class="cls-3" d="M148.653,424.825c.084,1.559-.235,3.279.314,4.653,6.965,17.452,16.523,33.32,29.054,47.387,4.018,4.511,7.686,9.334,11.515,14.014-36.125-25.53-64.729-57.373-81.415-98.8-10.193-25.306-14.099-51.95-14.377-79.157.981-.121,2.359-.919,3.219,0,7.356,7.853,21.038,13.619,26.586,17.92l-3.819,11.998c-3.68,11.103-3.959,22.576-2.66,33.972,1.226,10.76,5.368,20.617,12.374,29.087,4.025,4.355,8.051,8.71,12.076,13.066,1.024.949,2.049,1.899,3.073,2.848,1.353,1.004,2.707,2.008,4.06,3.011h0Z"/>
  <path class="cls-1" d="M449.769,290.806c-1.42,5.18-2.02,10.78-4.38,15.49-9.8,19.48-26.33,30.74-47.27,34.77-27.23,5.23-52.94,1.22-75.55-16.18-.78-.61-1.45-1.34-2.17-2.02h-.01v-.01c-5.26-5.71-10.5-11.41-15.75-17.11,9.75,8.5,20.15,15.88,32.89,19.26,29.61,7.52,58.44,6.75,85.79-8.42,11.11-6.16,19.36-15.41,26.45-25.78h0Z"/>
  <path class="cls-2" d="M313.27,247.948c1.615-19.491,10.981-35.275,29.308-45.162,5.023-2.71,10.569-4.586,16.052-6.268,4.595-1.41,9.929,1.537,10.758,5.619.933,4.592-1.303,7.453-5.647,9.096-13.033,4.929-23.641,12.718-28.926,26.146-1.551,3.941-2.22,8.233-3.225,12.38-.309,1.275-.297,2.627-.596,3.905-1.562,6.667-4.904,9.76-9.791,9.142-4.269-.54-7.796-5.539-7.93-11.252-.019-.831-.003-1.663-.003-3.606h0Z"/>
  <path class="cls-1" d="M423.728,123.643c18.578-4.063,32.496,5.959,46.537,15.494,1.156.785,1.997,2.238,2.637,3.55,6.199,12.704,12.326,25.443,18.458,38.18.262.544.363,1.165.722,2.355-7.507-1.884-14.51-3.641-21.512-5.398-9.389-15.74-20.914-29.709-34.714-41.778,0,0-12.128-12.403-12.128-12.403Z"/>
  <path class="cls-2" d="M101.551,242.912c2.203-22.51,18.906-40.645,41.004-44.257,1.603-.262,3.354-.145,4.952.194,4.088.869,6.864,3.05,7.087,7.658.224,4.633-2.28,7.188-6.383,8.183-16.793,4.073-26.741,14.148-28.823,31.678-.691,5.818-4.809,8.973-9.744,8.45-4.796-.508-8.182-5.49-8.092-11.906h-.001Z"/>
  <path class="cls-1" d="M288.72,388.79c13.926,2.55,27.048.3,39.397-6.592,3.186-1.778,6.388-3.527,9.582-5.289-5.175,9.734-13.613,16.164-22.739,21.63-10.784,6.459-22.483,10.012-35.286,9.192,3.123-6.54,6.084-12.74,9.046-18.941h0Z"/>
  <path class="cls-1" d="M123.548,330.842c-10.217-2.969-19.303-7.84-26.659-15.693-.86-.919-2.088-1.493-3.146-2.227v-8.827c11.091,7.067,21.932,13.975,33.177,21.14-.885,1.471-2.128,3.539-3.372,5.607h0Z"/>
  <path class="cls-2" d="M459.245,196.841c1.653,0,3.808-.172,4.89.133,1.769.915,4.247,2.777,4.228,4.203-.021,1.536-2.355,3.932-4.074,4.355-2.964.73-6.368.776-9.326.047-2.057-.507-4.937-2.585-5.222-4.326-.554-3.383,2.263-4.64,5.538-4.428,1.317.086,2.644.014,3.966.015h0Z"/>
  <path class="cls-4" d="M125.839,65.066v.01h.01v-.01h-.01ZM125.589,64.876l.23.18.02.01v-.01l-.25-.18Z"/>
  <path class="cls-4" d="M214.84,339.218c1.124-7.175,3.044-11.532,6.946-12.36,5.545-1.177,9.175,1.826,11.765,6.294,5.067,8.738,10.294,17.401,14.916,26.373,2.711,5.262,1.064,11.431-3.258,15.422-4.369,4.034-9.714,5.643-14.977,2.719-3.055-1.698-6.25-4.913-7.297-8.125-3.236-9.932-5.472-20.19-8.096-30.322h0Z"/>
  <path class="cls-4" d="M182.208,369.389c-2.466,7.969-9.116,11.32-15.654,8.918-7.135-2.622-11.683-11.104-8.383-18.255,4.611-9.993,10.351-19.48,15.869-29.033,1.952-3.38,5.397-5.371,9.322-4.081,4.144,1.361,5.296,5.142,5.36,9.227.018,1.165.003,2.33.003,3.495l-6.517,29.729h0Z"/>
  <path class="cls-4" d="M680.389,90.466c-.75-4.66-2.82-6.2-7.12-6.22-7.32-.03-14.65-.07-21.96-.44-27.1-1.36-51.87-10.02-73.34-26.38-15.03-11.47-28.46-25.01-42.98-37.18-19.03-15.94-41.12-22.95-65.79-19.3-21.89,3.24-39.84,14.61-54.55,30.71-8.79,9.61-16.31,20.38-24.79,31.12-24.43-7.8-50.38-9.77-76.96-7.98-26.87,1.81-51.82,10.04-76.23,20.27-7.92-12.96-16.94-24.42-28.81-33.28-19.16-14.3-40.4-20.43-64.17-15.06-15.23,3.43-27.62,11.87-38.6,22.71-11.09,10.95-21.04,23.17-34.51,31.53-6.82,2.92-13.46,6.38-20.49,8.64-13.47,4.33-27.53,2.99-41.41,3.15-5.16.06-7.15,1.82-7.59,7.02-.28,3.31-.33,6.64-.55,9.96-1.46,21.4-.3,42.48,7.84,62.66,13.19,32.69,33.43,59.42,64.96,76.56.15,1.51.69,3.1.4,4.52-5.51,26.82-7.15,53.78-4.34,81.1,2.47,24.1,7.62,47.4,17.17,69.71,15.83,37,39.01,68.68,70.13,94.03,27.91,22.74,59.55,39.18,93.85,50.3,28.13,9.11,56.87,14.42,86.59,14.28,19.29-.09,38.56-.38,57.47-4.29,12.47-2.57,24.66-6.46,36.97-9.75,1.58-.43,3.19-.77,4.73-1.3,25.73-8.91,49.33-21.86,71.41-37.62.06-.04.12-.08.18-.12,1.05-.67,3.8-2.75,4.46-3.36,12.56-11.82,25.21-23.53,37.58-35.55,13.2-12.83,23.26-28.15,32.32-43.96,16.48-28.73,28.04-59.28,31.72-92.52,2.92-26.34,3.59-52.54-2.64-78.54-.84-5.29-3.23-10.25,3.79-14.28,13.37-7.68,24.38-18.57,33.76-30.65,27.61-35.57,38.72-75.65,31.5-120.49h0ZM62.859,193.826c-.1,4.95-.79,9.89-1.23,14.84-19.55-19.06-32.44-41.61-36.05-68.99-.57-4.26-.79-8.57-1.16-12.86.13-2.76.27-5.53.43-8.77,3,0,5.64.2,8.24-.04,6.58-.6,13.3-.71,19.68-2.23,26.28-6.25,47.26-20.86,63.96-41.88.7-.65,1.39-1.3,2.09-1.96v.01l7.02-6.87v-.01l-.02-.01-.23-.18.25.18v.01h.01v.01c1.25-1.06,2.5-2.11,3.75-3.17,5.33-3.01,10.67-6.01,16-9.01,2.65-.64,5.3-1.28,7.94-1.93,2.68-.1,5.36-.2,8.04-.3,13.28,1.25,24.89,6.18,34.37,15.72,1.37,1.37,2.49,3,3.73,4.5,3.81,4.94,7.72,9.8,11.31,14.89.52.73.01,3.05-.79,3.73-5.79,4.93-11.79,9.63-17.78,14.45-3.97-5.56-7.37-11.08-11.52-15.96-6.7-7.89-16.38-9.99-22.28-3.94-4.16,4.26-7.47,10.39-8.75,16.22-2.61,11.94-3.37,24.27-5.31,36.36-2.08,12.87-4.55,25.69-7.17,38.46-.23,1.14-2.83,2.51-4.36,2.56-7.82.26-15.65.12-23.47.12-7.18.69-14.42.98-21.5,2.18-6.57,1.11-13.07,2.88-19.4,4.96-3.86,1.27-5.71,4.54-5.8,8.91h0ZM140.479,350.866h-.01c6.5-18.1,16.27-33.82,31.49-46.15,18.28-14.8,40.01-16.09,59.07-2.19,16.17,11.78,28.33,27.04,35.02,45.87,7.06,19.82,3.99,38.07-12.54,53.36-9.71,8.99-22.22,11.68-35.24,7.49-10.07-3.24-19.54-3.87-29.84.11-10.67,4.12-21.24,1.28-30.6-5.25-2.67-1.86-5.04-4.14-7.55-6.24v-.01c-11.05-14.04-13.81-29.81-9.8-46.99h0ZM119.389,246.366c-.69,5.82-4.81,8.98-9.75,8.45-4.79-.51-8.18-5.49-8.09-11.9,2.21-22.51,18.91-40.65,41.01-44.26,1.6-.26,3.35-.15,4.95.19,4.09.87,6.86,3.05,7.08,7.66.23,4.63-2.28,7.19-6.38,8.18-16.79,4.08-26.74,14.15-28.82,31.68h0ZM85.409,205.626c-2.12.64-4.58.25-6.88.13-3.29-.17-5.82-1.28-5.65-5.25.17-3.9,2.97-3.71,5.68-3.67.66.01,1.32,0,1.98,0l5.8.45c1.49.86,3.11,3.14,3,4.66-.11,1.37-2.31,3.2-3.93,3.68ZM502.529,481.706c-11.74,7.99-23.17,16.51-35.3,23.87-26.73,16.22-56.33,25.05-86.88,29.93-25.25,4.03-50.74,3.2-76.22-.41-31.96-4.53-61.97-14.59-90.47-29.38-8.36-4.33-16.1-9.85-24.13-14.83-36.13-25.53-64.73-57.38-81.42-98.8-10.19-25.31-14.1-51.95-14.37-79.16v-8.83c11.09,7.07,21.93,13.98,33.17,21.14-.88,1.47-2.12,3.54-3.37,5.61-1.27,4-2.54,8-3.82,12h.01c-3.68,11.11-3.96,22.57-2.66,33.97,1.23,10.76,5.37,20.61,12.38,29.08h-.01c4.03,4.36,8.06,8.71,12.08,13.07,1.03.95,2.04,1.89,3.07,2.84l.01.01c1.35,1,2.69,2.01,4.05,3.01,7.64,3.03,15.3,6.03,22.92,9.15,1,.41,1.86,1.35,2.59,2.21,17.2,20.05,39.19,29.42,65.39,28.86,4.6-.1,9.16-1.98,13.77-3.72-13.65-5.72-27.16-11.08-37.88-21.38-2.15-1.78-4.31-3.56-7.29-6.01,3.98,0,6.99.03,10-.01,10.58-.13,21.19,0,31.76-.52,12.26-.61,24.57-1.26,36.73-2.87,17.61-2.34,34.37-7.66,48.27-19.3,5.9-4.94,10.86-10.99,16.51-16.79,1.67,3.57,3.33,7.3,5.17,10.94.88,1.75,1.77,4.13,3.28,4.79,3.28,1.44,7.26,3.25,10.41,2.53,4.49-1.01,6.81-5.59,6.16-10.17-.66-4.63-1.72-9.67-4.22-13.47-5.73-8.68-12.22-16.91-18.89-24.91-1.97-2.35-5.46-3.63-8.48-4.84-3.9-1.56-7.87-.3-9.21,3.46-1.02,2.86.08,6.54.5,9.82.19,1.48,1.02,2.88,1.55,4.32-5.17,9.73-13.61,16.16-22.74,21.63-10.78,6.46-22.48,10.01-35.28,9.19,3.12-6.54,6.08-12.74,9.04-18.94,2.77-11.8,3.96-23.61,2.01-35.75-3.25-20.25-12.88-37.34-26.64-51.88-7.87-8.3-17.67-14.77-26.89-22.3,8.74-1.38,17.8-2.81,27.78-4.39-12.27-7.14-24.68-8.77-37.18-6.03,1.94-7.66,4.04-15.15,5.73-22.73,2.36-10.57,11.52-17.05,24.27-16.99,9.64.05,20.88,7.35,22.02,17.71,1.5,13.64,3.6,27.33,10.88,39.35,4.19,6.93,9.27,13.33,13.95,19.96,9.74,8.51,20.14,15.88,32.88,19.27,29.61,7.51,58.44,6.75,85.79-8.42,11.11-6.17,19.37-15.42,26.45-25.79,9.51-16.02,14.16-33.23,14.03-51.98-.13-19.95,13.37-22.89,26.28-19.26,10.21,2.86,20.45,5.64,30.64,8.59,2.34.68,4.53,1.91,6.79,2.89,4.61,2.08,9.3,4,13.82,6.28,13.02,6.55,25.79,13.62,39.02,19.69,4.83,2.22,7.54,4.87,8.02,9.91,1.1,11.69,3.21,23.41,2.99,35.08-.55,29.18-4.79,57.81-17.18,84.69-.4.88-3.82,7.72-4.09,8.73v.02c-6.95,12.31-13.64,24.79-21.38,36.58-12.06,18.38-27.36,34.04-44.51,47.84-.63.5-1.1,1.22-1.65,1.83M313.269,247.946c1.62-19.49,10.98-35.27,29.31-45.16,5.02-2.71,10.57-4.59,16.05-6.27,4.6-1.41,9.93,1.54,10.76,5.62.93,4.59-1.3,7.45-5.65,9.1-13.03,4.93-23.64,12.72-28.92,26.14-1.55,3.94-2.22,8.24-3.23,12.38-.31,1.28-.3,2.63-.6,3.91-1.56,6.66-4.9,9.76-9.79,9.14-4.27-.54-7.79-5.54-7.93-11.25-.02-.83,0-1.67,0-3.61h0ZM455.279,196.826c1.32.09,2.64.02,3.97.02,1.65,0,3.58-.54,4.89.13,1.76.91,4.24,2.78,4.22,4.2-.02,1.54-2.35,3.93-4.07,4.36-2.96.73-6.37.77-9.33.04-2.05-.5-4.93-2.58-5.22-4.32-.55-3.38,2.27-4.64,5.54-4.43h0ZM657.699,121.736c-.9,27.16-10.04,51.42-27.17,72.19-8.15,9.89-18.59,17.89-28,26.75-.01.01-.02.02-.02.03-5.3,3.32-10.53,6.77-15.96,9.88-1.49.85-4.08,1.46-5.36.74-9.34-5.27-18.48-10.91-27.68-16.44-51.26-42.31-74.07-96.06-65.92-162.98-14.52-.78-27.25,4.64-37.88,15-14.32,13.97-20.78,31.96-25.1,50.92-.43,1.91-.6,3.88-.89,5.82,18.58-4.06,32.5,5.96,46.54,15.49,1.16.79,2,2.24,2.64,3.55,6.2,12.71,12.32,25.45,18.46,38.18.26.55.36,1.17.72,2.36-7.51-1.89-14.51-3.64-21.51-5.4-11.16-1.22-22.3-3.07-33.49-3.52-17.38-.71-34.8-.65-52.2-.57-8.09.03-16.23.49-24.27,1.41-24.15,2.75-47.48,8.39-68.27,21.69-4.41,2.82-8.22,6.57-12.86,10.34-9.4-5.84-20.57-7.13-32.09-5.28-4.14.67-8.07,2.59-12.16,3.71-1.3.36-3.44.58-4.14-.15-12.41-12.84-28.27-18.7-45.09-22.63-6.93-1.62-13.92-3.01-21.98-4.74,2.74-4.73,5.1-9.55,8.11-13.91,27.27-39.37,63.32-66.38,110.14-78.43,13.42-3.46,26.94-5.08,40.73-5.86,25.58-1.46,50.1,3.33,74.2,11.29,6.5,2.15,6.18,1.94,9.59-4.08,5.38-9.47,11.25-18.67,16.9-27.99-.09-.13-.17-.24-.25-.35.09.11.18.22.26.35,1.32-1.75,2.63-3.51,3.95-5.26,2.06-2.07,4.09-4.16,6.17-6.2,8.04-7.88,16.78-14.7,27.76-18.06,7.43-1.5,14.95-4.53,22.27-4.11,9.96.58,20.15,3.21,28.29,9.59,9.89,7.77,19.47,16,28.64,24.61,26.17,24.59,56.15,41.71,91.74,48.32,4.69.87,9.31,2.04,13.97,3.07,11.74-.67,11.58-.68,11.21,10.67h0Z"/>
  <path class="cls-2" d="M76.177,196.747c2.243.064,3.082.081,3.38.083.035,0,.421.002.938.005.087,0,.141,0,.206.001,4.371.024,5.013.049,5.843.411.185.081,2.545,1.129,2.91,3.396.144.896-.078,1.645-.214,2.005-.77,2.037-2.984,2.746-3.717,2.98-.776.248-1.464.284-2.808.346-3.248.149-5.292.218-7.357-.912-.617-.338-1.246-.691-1.778-1.423-1.034-1.423-1.174-3.551-.26-5.035.512-.83,1.241-1.276,1.342-1.336.604-.36,1.174-.477,1.514-.521h0Z"/>
  <g id="Layer_2" data-name="Layer 2">
    <path class="cls-4" d="M62.394,185.025c0,.1.5,12.1.5,12.3,2.1,8.7,2.9,5.8,5.4,14.4,1.5,5.2,3.2,10.6,4.3,16.1.6,2.4,1,4.9,1.3,7.6,1.4,11.7,1,23.4,1.5,35.1v1.7c.3.5.5,1.1.8,1.6.5,1,1,2,1.5,3.1.5.4,1,.9,1.5,1.3.3.2,1.4,1.2,1.7,1.4,3.5,2.6,7.2,4.8,11.1,6.7.4.2.9.5,1.3.7v-.2c10.3,6.5,20.3,13,30.7,19.6,2.3.8,4.6,1.8,6.9,2.8.1,0,4,1.5,1.9.9-.1,0-.2,0-.2-.1.3.1.8.3.6.3,2.3.3,4.8.1,7.1,0,1.2,0,2.3-.1,3.5-.2-.1,0,1.6-.1,2.6-.2.7-.1,2.8-.5,3.1-.5.1,0,.2,0,.3-.1,1.3-1.1,2.7-2,4.2-2.7,4.9-7,10.7-13.4,17.7-19.1,14.3-11.6,30.6-14.9,46.2-9.2h0c.2-.5,2.2-5.3,1.1-2.6,1-2.4,2-4.9,3-7.3.6-1.4,1.2-2.8,1.8-4.1,0-.1,1.2-3.1,1.2-3.2,1.2-3.2,2-6.5,2.5-9.9h-.1c1.9-7.7,4-15.1,5.7-22.7,2.4-10.6,11.5-17.1,24.3-17,9.6.1,20.9,7.3,22,17.7,1.5,13.6,3.6,27.3,10.9,39.3,4.2,6.9,9.3,13.3,13.9,20,9.7,8.5,20.1,15.9,32.9,19.3,29.6,7.5,58.4,6.8,85.8-8.4,11.1-6.2,19.4-15.4,26.5-25.8,9.5-16,14.2-33.2,14-52-.1-19.9,13.4-22.9,26.3-19.3,10.2,2.9,20.4,5.6,30.6,8.6.1,0,.2.1.3.1-.2-.6-.4-1.2-.7-1.8-.4-1.1-.9-2.2-1.3-3.3-.2-.4-.3-.7-.4-1-.1-.1-.2-.3-.3-.7-3.9-8.8-8.5-17.4-13.2-25.8-1.1-1.9-2.2-3.8-3.3-5.6,0,0-.2-.4-.5-.7-.2-.2-1.3-1.7-1.5-2-.5-.6-1.9-1.5-2.2-2.2v-.1c-.1-.1-.4-.2-.6-.4,0,.1-1.5-.7-2.1-.9-.3-.1-.5-.2-.8-.3-.7-.1-1.4-.3-2.1-.5q0,.1.1.2c-7.5-1.9-14.5-3.6-21.5-5.4-11.2-1.2-22.3-3.1-33.5-3.5-17.4-.7-34.8-.6-52.2-.6-8.1,0-16.2.5-24.3,1.4-24.2,2.7-47.5,8.4-68.3,21.7-4.4,2.8-8.2,6.6-12.9,10.3-9.4-5.8-20.6-7.1-32.1-5.3-4.1.7-8.1,2.6-12.2,3.7-1.3.4-3.4.6-4.1-.2-12.4-12.8-28.3-18.7-45.1-22.6-6.9-1.6-13.9-3-22-4.7h0c-.4,0-.8.1-1.2.1-8.8,0-17.6-.6-26.4-.6-.7,0-1.2,0-1.9.1h-1.5c-7.8.3-15.6.1-23.5.1-7.2.7-14.4,1-21.5,2.2-6.6,1.1-13.1,2.9-19.4,5-3.9,1.3-5.7,4.5-5.8,8.9M84.994,188.325c-2.1.6-4.6.2-6.9.1-3.3-.2-5.8-1.3-5.6-5.2.2-3.9,3-3.7,5.7-3.7h2l5.8.5c1.5.9,3.1,3.1,3,4.7-.2,1.3-2.4,3.1-4,3.6h0ZM147.794,197.425c-16.8,4.1-26.7,14.1-28.8,31.7-.7,5.8-4.8,9-9.7,8.4-4.8-.5-8.2-5.5-8.1-11.9h0c2.2-22.5,18.9-40.6,41-44.3,1.6-.3,3.4-.1,5,.2,4.1.9,6.9,3.1,7.1,7.7.1,4.6-2.4,7.2-6.5,8.2h0ZM363.294,193.925c-13,4.9-23.6,12.7-28.9,26.1-1.6,3.9-2.2,8.2-3.2,12.4-.3,1.3-.3,2.6-.6,3.9-1.6,6.7-4.9,9.8-9.8,9.1-4.3-.5-7.8-5.5-7.9-11.3v-3.6h0c1.6-19.5,11-35.3,29.3-45.2,5-2.7,10.6-4.6,16.1-6.3,4.6-1.4,9.9,1.5,10.8,5.6.8,4.8-1.4,7.7-5.8,9.3h0ZM463.894,188.225c-3,.7-6.4.8-9.3,0-2.1-.5-4.9-2.6-5.2-4.3-.6-3.4,2.3-4.6,5.5-4.4,1.3.1,2.6,0,4,0h0c1.7,0,3.6-.5,4.9.1,1.8.9,4.2,2.8,4.2,4.2-.1,1.6-2.4,4-4.1,4.4h0Z"/>
    <path class="cls-5" d="M312.794,230.625c1.6-19.5,11-35.3,29.3-45.2,5-2.7,10.6-4.6,16.1-6.3,4.6-1.4,9.9,1.5,10.8,5.6.9,4.6-1.3,7.5-5.6,9.1-13,4.9-23.6,12.7-28.9,26.1-1.6,3.9-2.2,8.2-3.2,12.4-.3,1.3-.3,2.6-.6,3.9-1.6,6.7-4.9,9.8-9.8,9.1-4.3-.5-7.8-5.5-7.9-11.3-.2-.6-.2-1.4-.2-3.4h0Z"/>
    <path class="cls-5" d="M101.094,225.625c2.2-22.5,18.9-40.6,41-44.3,1.6-.3,3.4-.1,5,.2,4.1.9,6.9,3.1,7.1,7.7.2,4.6-2.3,7.2-6.4,8.2-16.8,4.1-26.7,14.1-28.8,31.7-.7,5.8-4.8,9-9.7,8.4-4.9-.5-8.3-5.5-8.2-11.9h0Z"/>
    <path class="cls-5" d="M458.794,179.525c1.7,0,3.6-.5,4.9.1,1.8.9,4.2,2.8,4.2,4.2,0,1.5-2.4,3.9-4.1,4.4-3,.7-6.4.8-9.3,0-2.1-.5-4.9-2.6-5.2-4.3-.6-3.4,2.3-4.6,5.5-4.4,1.4.1,2.7,0,4,0h0Z"/>
    <path class="cls-5" d="M75.694,179.425c2.2.1,3.1.1,3.4.1h1.1c4.4,0,5,0,5.8.4.2.1,2.5,1.1,2.9,3.4.1.9-.1,1.6-.2,2-.8,2-3,2.7-3.7,3-.8.2-1.5.3-2.8.3-3.2.1-5.3.2-7.4-.9-.6-.3-1.2-.7-1.8-1.4-1-1.4-1.2-3.6-.3-5,.5-.8,1.2-1.3,1.3-1.3.8-.4,1.4-.5,1.7-.6h0Z"/>
  </g>
</svg>