<?xml version="1.0" encoding="utf-8"?>
<!-- Generator: Adobe Illustrator 28.3.0, SVG Export Plug-In . SVG Version: 6.00 Build 0)  -->
<svg version="1.1" id="Layer_1" xmlns="http://www.w3.org/2000/svg" xmlns:xlink="http://www.w3.org/1999/xlink" x="0px" y="0px"
	 viewBox="0 0 682.5 562.9" style="enable-background:new 0 0 682.5 562.9;" xml:space="preserve">
<style type="text/css">
	.st0{fill:#1A1A1A;}
	.st1{fill:#FFFDF5;}
	.st2{fill:#C8B8AD;}
	.st3{fill:#FDFDFD;}
	.st4{fill:#FFFFFF;}
</style>
<g id="Layer_1_00000026876092192569064840000009661294318300722304_">
	<path class="st0" d="M431.6,548.9c-12.3,3.3-24.5,7.2-37,9.8c-18.9,3.9-38.2,4.2-57.5,4.3c-29.7,0.1-58.5-5.2-86.6-14.3
		c-34.3-11.1-65.9-27.6-93.9-50.3c-31.1-25.4-54.3-57-70.1-94C77,382,71.9,358.7,69.4,334.6c-2.8-27.3-1.2-54.3,4.3-81.1
		c0.3-1.4-0.3-3-0.4-4.5c-0.9-1.4-1.8-2.8-2.9-4.5c2.6-3.2,1.2-5.5-2.2-7.3c-0.9-0.5-1.8-1.1-2.3-1.9c-3.5-5.5-8.6-6.8-13.8-5.5
		c-2.2-3-3.7-5.9-6-7.9c-1.9-1.7-6.1-1.8-6.9-3.7c-0.9-2.1,0.9-5.3,1.5-8.1c0.1-0.5,0.2-1,0.4-1.5c1.6-6.7,2.7-7.3,10.6-4.8
		c-1.3,0.6-2.2,1.2-3.2,1.6c-3.9,1.4-5.7,4-4.5,8.1c1,3.4,5,4.9,9.2,3.5c1.6-0.5,3-1.5,4.6-1.8c6.1-1.2,6.2-1.1,3.9-6.7
		c0.4-4.9,1.1-9.9,1.2-14.8c0.1-4.4,1.9-7.6,5.8-8.9c6.3-2.1,12.8-3.8,19.4-5c7.1-1.2,14.3-1.5,21.5-2.2c7.8,0,15.7,0.1,23.5-0.1
		c1.5-0.1,4.1-1.4,4.4-2.6c2.6-12.8,5.1-25.6,7.2-38.5c1.9-12.1,2.7-24.4,5.3-36.4c1.3-5.8,4.6-12,8.7-16.2c5.9-6,15.6-3.9,22.3,3.9
		c4.1,4.9,7.6,10.4,11.5,16c6-4.8,12-9.5,17.8-14.4c0.8-0.7,1.3-3,0.8-3.7c-3.6-5.1-7.5-9.9-11.3-14.9c-1.2-1.5-2.4-3.1-3.7-4.5
		c-9.5-9.5-21.1-14.5-34.4-15.7c1.3-6.4,5.8-0.3,8.6-2.4c0.1-0.9,0.5-2,0.4-3.1c-0.4-4.9,1.9-6.8,6.6-6.3c4.4,0.5,9,0.3,12.2,4.5
		c0.6,0.7,2.9,1.2,3.4,0.7c0.9-0.8,1.8-2.9,1.4-3.7c-1-1.9-2.8-3.4-4.4-4.9c-0.8-0.7-1.9-1-2.8-1.5c1.3-1.2,2.4-1.6,3-1.2
		c2.8,1.7,5.3,4.5,8.3,5.1c4.9,0.9,3.3,5.5,5.3,7.2c2.3,1.9,7.1,0.8,9.1,2.8c6.3,6.2,12,12.9,17.3,19.9c2.4,3.2,2.6,8.3,8,8.7
		c0.2,0,0.7,0.8,0.6,1.2c-0.3,2.9,1.5,4.5,3.7,3.7c1.4-0.5,1.9-3.3,2.9-4.9c1-1.4,2-2.9,3.4-3.9c1-0.8,2.4-0.9,3.7-1.3
		c8-2.8,15.9-5.8,23.9-8.4c1.6-0.5,4.8,1.1,5.4,0.4c3.9-5.4,10.2-3.3,15.1-5.2c3.4-1.3,5.9,0.5,6.9,3.4c-3.8,1.3-7.4,2.2-10.5,3.9
		c-3.2,1.7-2.9,4.9,0.5,5.7c6.2,1.4,10.8,5.8,17.5,7.2c8.7,1.9,16-3.9,24.1-1.6c0.9,0.2,2.5-1.9,3.6-3c4.6-4.7,9.2-9.1,16.3-9.8
		c1.3-0.1,2.3-2.7,3.7-3.8c1.3-1,3.2-2.6,4.5-2.3c6.5,1.3,13.1,2.6,19.3,4.9c5.4,2,11.6,3.4,13.8,10.2c0.2,0.7,2.7,1.5,3.5,1.1
		c2.2-1.1,3.9-3,6-4.3c2.1-1.4,4.3-3.3,6.7-3.7c3.6-0.5,5.8-1.2,6.5-5.3c0.4-2.3,2.2-4.7,4.7-1.1c-5.7,9.3-11.5,18.5-16.9,28
		c-3.4,6-3.1,6.2-9.6,4.1c-24.1-8-48.6-12.8-74.2-11.3c-13.8,0.8-27.3,2.4-40.7,5.9c-46.8,12-82.9,39.1-110.1,78.4
		c-3,4.4-5.4,9.2-8.1,13.9c8.1,1.7,15.1,3.1,22,4.7c16.8,3.9,32.7,9.8,45.1,22.6c0.7,0.7,2.8,0.5,4.1,0.2c4.1-1.1,8-3,12.2-3.7
		c11.5-1.8,22.7-0.6,32.1,5.3c4.6-3.8,8.5-7.5,12.9-10.3c20.8-13.3,44.1-18.9,68.3-21.7c8-0.9,16.2-1.4,24.3-1.4
		c17.4-0.1,34.8-0.1,52.2,0.6c11.2,0.5,22.3,2.3,33.5,3.5c7,1.8,14,3.5,21.5,5.4c-0.4-1.2-0.5-1.8-0.7-2.4
		c-6.1-12.7-12.3-25.5-18.5-38.2c-0.6-1.3-1.5-2.8-2.6-3.6c-14-9.5-28-19.6-46.5-15.5c0.3-1.9,0.5-3.9,0.9-5.8
		c4.3-19,10.8-37,25.1-50.9c10.6-10.4,23.4-15.8,37.9-15c-8.2,66.9,14.7,120.7,65.9,163c9.2,5.5,18.3,11.2,27.7,16.4
		c1.3,0.7,3.9,0.1,5.4-0.7c5.4-3.1,10.7-6.6,16-9.9c-2.5,2.5-4.8,5.2-7.4,7.6c-3.2,3-3.8,7.9-1.4,11.5c0.8,1.2,1.6,2.6,1.7,4
		c0.6,7.3-1.3,15,4,21.6c-1.6,0.7-2.4,0.9-3,1.3c-1.7,1.2-4.1,2.3-4.7,4c-0.4,1,1.9,3.1,2.9,4.7c1,1.6,2.1,3.2,2.9,4.9
		c0.5,1,0.3,2.3,0.7,3.4c1.2,3.3,7,6.3,10,4.8c4.4-2.2,1.5-5.2,0.3-8c-0.3-0.6-0.5-1.2-0.6-1.9c-0.4-3.3,2.2-7.2,4.6-6.8
		c0.3,1.4,0.7,2.9,1,4.3c2.5,11.5,1.1,23.1,0.8,34.7c-0.3,9.9-1,19.7-1.5,29.6c-6.1-0.4-11-0.7-15.9-1c-4-0.2-6,2.1-5,5.9
		c2.4,9.3,10.7,11.8,18.2,6.7c-0.3,1.4-0.4,2.5-0.7,3.6c-2.1,9.3-5.5,11.7-14.9,13.3c-6.2,1.1-13,2.3-14.6,10.6
		c-0.5,2.7-1.7,5.4-3,7.8c-0.6,1-5.7,7.3-6.9,8c0.2-1,3.7-7.9,4.1-8.8c12.4-26.9,16.6-55.5,17.2-84.7c0.2-11.7-1.9-23.4-3-35.1
		c-0.5-5-3.2-7.7-8-9.9c-13.2-6.1-26-13.1-39-19.7c-4.5-2.3-9.2-4.2-13.8-6.3c-2.3-1-4.4-2.2-6.8-2.9c-10.2-3-20.4-5.7-30.6-8.6
		c-12.9-3.6-26.4-0.7-26.3,19.3c0.1,18.8-4.5,36-14,52c-7.1,10.4-15.3,19.6-26.5,25.8c-27.3,15.2-56.2,15.9-85.8,8.4
		c-12.7-3.4-23.1-10.8-32.9-19.3c-4.7-6.6-9.8-13-13.9-20c-7.3-12-9.4-25.7-10.9-39.3c-1.1-10.4-12.4-17.7-22-17.7
		c-12.8-0.1-21.9,6.4-24.3,17c-1.7,7.6-3.8,15.1-5.7,22.7c12.5-2.7,24.9-1.1,37.2,6c-10,1.6-19,3-27.8,4.4c9.2,7.5,19,14,26.9,22.3
		c13.8,14.5,23.4,31.6,26.6,51.9c1.9,12.1,0.8,23.9-2,35.7c-3,6.2-5.9,12.4-9,18.9c12.8,0.8,24.5-2.7,35.3-9.2
		c9.1-5.5,17.6-11.9,22.7-21.6c-0.5-1.4-1.4-2.8-1.5-4.3c-0.4-3.3-1.5-7-0.5-9.8c1.3-3.8,5.3-5,9.2-3.5c3,1.2,6.5,2.5,8.5,4.8
		c6.7,8,13.2,16.2,18.9,24.9c2.5,3.8,3.6,8.8,4.2,13.5c0.7,4.6-1.7,9.2-6.2,10.2c-3.2,0.7-7.1-1.1-10.4-2.5c-1.5-0.7-2.4-3-3.3-4.8
		c-1.8-3.6-3.5-7.4-5.2-10.9c-5.6,5.8-10.6,11.9-16.5,16.8c-13.9,11.6-30.7,17-48.3,19.3c-12.2,1.6-24.5,2.3-36.7,2.9
		c-10.6,0.5-21.2,0.4-31.8,0.5c-3,0-6,0-10,0c3,2.5,5.1,4.2,7.3,6c10.7,10.3,24.2,15.7,37.9,21.4c-4.6,1.7-9.2,3.6-13.8,3.7
		c-26.2,0.6-48.2-8.8-65.4-28.9c-0.7-0.9-1.6-1.8-2.6-2.2c-7.6-3.1-15.3-6.1-22.9-9.1c-1.4-1-2.7-2-4.1-3c1.4-2.2,2.6-4.6,4.4-6.5
		c4.2-4.2,4.7-9,1.2-13.9c-0.6-0.8,0-2.4,0-3.6c2.5,2.1,4.9,4.4,7.6,6.3c9.4,6.5,19.9,9.4,30.6,5.2c10.3-4,19.8-3.3,29.8-0.1
		c13,4.2,25.5,1.5,35.2-7.5c16.5-15.3,19.6-33.5,12.5-53.4c-6.7-18.8-18.9-34.1-35-45.9c-19.1-13.9-40.8-12.6-59.1,2.2
		c-15.2,12.3-25,28-31.5,46.1c-4.3,0.3-9.4,2-11.7-3.1c-2-4.3-4.7-5.6-9-4.9c1.3-4,2.5-8,3.8-12c1.2-2.1,2.5-4.1,3.4-5.6
		c-11.2-7.2-22.1-14.1-33.2-21.1v8.8c0.3,27.2,4.2,53.9,14.4,79.2c16.7,41.4,45.3,73.3,81.4,98.8c8,5,15.8,10.5,24.1,14.8
		c28.5,14.8,58.5,24.8,90.5,29.4c25.5,3.6,51,4.4,76.2,0.4c30.6-4.9,60.1-13.7,86.9-29.9c12.1-7.4,23.6-15.9,35.3-23.9
		c-0.2,3.7-0.8,7.5-0.5,11.1c0.2,2,2,3.9,3,5.8c1.5-1.4,3-2.8,4.4-4.3c0.4-0.4,0-1.4,0.3-1.9c0.5-0.8,1.2-1.4,1.8-2
		c0.7,0.6,1.6,1.2,2,1.9c2.5,5.1,1.5,9.7-2.6,13.6c-0.5,0.5-0.7,1.3-1.1,2l-0.6,0.9c-4.1,1.6-8.3,3.2-11.9,4.6
		c-1,1.5-1.6,3.2-2.9,4.1c-4,2.7-8,5.4-12.4,7.4c-15,7-30.1,13.6-45.1,20.5C435.1,546.4,433.4,547.7,431.6,548.9L431.6,548.9
		L431.6,548.9L431.6,548.9z M313.3,248c0,1.9,0,2.8,0,3.6c0.1,5.7,3.7,10.7,7.9,11.3c4.9,0.6,8.2-2.5,9.8-9.1
		c0.3-1.3,0.3-2.6,0.6-3.9c1-4.1,1.7-8.4,3.2-12.4c5.3-13.4,15.9-21.2,28.9-26.1c4.3-1.6,6.6-4.5,5.6-9.1c-0.8-4.1-6.2-7-10.8-5.6
		c-5.5,1.7-11,3.6-16.1,6.3C324.3,212.7,314.9,228.5,313.3,248L313.3,248L313.3,248z M101.6,242.9c-0.1,6.4,3.3,11.4,8.1,11.9
		c4.9,0.5,9.1-2.6,9.7-8.4c2.1-17.5,12-27.6,28.8-31.7c4.1-1,6.6-3.6,6.4-8.2c-0.2-4.6-3-6.8-7.1-7.7c-1.6-0.3-3.3-0.5-5-0.2
		C120.5,202.3,103.8,220.4,101.6,242.9L101.6,242.9L101.6,242.9z M459.2,196.8c-1.3,0-2.6,0.1-4,0c-3.3-0.2-6.1,1-5.5,4.4
		c0.3,1.7,3.2,3.8,5.2,4.3c3,0.7,6.4,0.7,9.3,0c1.7-0.4,4.1-2.8,4.1-4.4c0-1.4-2.5-3.3-4.2-4.2C462.8,196.3,460.9,196.8,459.2,196.8
		L459.2,196.8L459.2,196.8z M80.5,196.8c-0.7,0-1.3,0-2,0c-2.7,0-5.5-0.2-5.7,3.7c-0.2,4,2.4,5.1,5.6,5.2c2.3,0.1,4.8,0.5,6.9-0.1
		c1.6-0.5,3.8-2.3,3.9-3.7c0.1-1.5-1.5-3.8-3-4.7"/>
	<path class="st0" d="M423.7,59.1c-2.5-3.5-4.3-1.2-4.7,1.1c-0.7,4-3,4.8-6.5,5.3c-2.4,0.3-4.6,2.3-6.7,3.7c-2.1,1.4-3.8,3.2-6,4.3
		c-0.8,0.4-3.3-0.4-3.5-1.1c-2.2-6.7-8.4-8.2-13.8-10.2c-6.2-2.3-12.8-3.6-19.3-4.9c-1.3-0.3-3.1,1.3-4.5,2.3
		c-1.4,1.1-2.4,3.7-3.7,3.8c-7.1,0.7-11.7,5.1-16.3,9.8c-1.1,1.2-2.8,3.3-3.6,3c-8.1-2.3-15.4,3.5-24.1,1.6
		c-6.6-1.4-11.2-5.8-17.5-7.2c-3.4-0.8-3.7-4-0.5-5.7c3.2-1.7,6.8-2.5,10.5-3.9c-1-2.9-3.6-4.7-6.9-3.4c-4.9,1.9-11.2-0.2-15.1,5.2
		c-0.5,0.8-3.8-0.9-5.4-0.4c-8,2.6-15.9,5.6-23.9,8.4c-1.2,0.4-2.7,0.5-3.7,1.3c-1.3,1.1-2.4,2.5-3.4,3.9c-1.1,1.6-1.5,4.4-2.9,4.9
		c-2.3,0.8-4.1-0.7-3.7-3.7c0-0.4-0.4-1.2-0.6-1.2c-5.4-0.4-5.6-5.5-8-8.7c-5.3-7-11.1-13.7-17.3-19.9c-2-2-6.8-0.9-9.1-2.8
		c-2-1.7-0.5-6.3-5.3-7.2c-3-0.5-5.5-3.4-8.3-5.1c-0.6-0.4-1.7,0-3,1.2c1,0.5,2.1,0.8,2.8,1.5c1.6,1.5,3.4,3,4.4,4.9
		c0.4,0.8-0.5,2.9-1.4,3.7c-0.6,0.5-2.9,0.1-3.4-0.7c-3.1-4.2-7.8-4-12.2-4.5c-4.6-0.5-7,1.4-6.6,6.3c0.1,1.1-0.3,2.2-0.4,3.1
		c-2.7,2.1-7.3-3.9-8.6,2.4c-2.7,0.1-5.4,0.2-8,0.3c-2-3.3,0.9-2.6,2.6-3.4c1.6-0.8,3.5-2.2,4-3.7c0.3-1.2-1-3.5-2.3-4.3
		c-3.8-2.5-16.7-0.6-19.9,2.6c-2.3,2.3-2.1,4.2,0.9,5.3c2.4,0.9,5,1.1,7.9,1.7c-0.3,1.2-0.7,2.5-1.1,3.9c-5.3,3-10.7,6-16,9
		c-0.7-1.1-1.3-2.3-2-3.4c-0.9,1.1-2.1,2.1-2.5,3.3c-0.3,0.9,0.4,2.2,0.7,3.3l-0.3-0.2l0.3,0.2c-1.6,0-3.3-0.2-4.9,0.1
		c-4.3,0.8-4.9,3.2-2.2,6.8c-0.7,0.7-1.4,1.3-2.1,2c-3-0.2-6-0.2-9-0.5c-4.4-0.4-8.7-1.2-13.1-1.2c-1,0-2.7,2.4-2.7,3.7
		c0,1.3,1.5,3,2.8,3.7c1.3,0.8,3.3,0.3,4.8,0.9c1.1,0.4,2.6,1.8,2.5,2.5c-0.2,1.2-1.4,3.1-2.4,3.2c-2.2,0.2-5.4,0.3-6.4-1
		c-2.1-2.6-3.2-6.1-4.6-9.3c-0.6-1.3-0.9-2.7-1.4-4.1c-1.3,0.5-2.7,0.9-3.8,1.6c-4.3,2.7-8.5,5.6-12.8,8.3c0-0.3,0-0.6,0-0.9
		c13.5-8.4,23.4-20.6,34.5-31.5c11-10.8,23.4-19.3,38.6-22.7c23.8-5.4,45,0.8,64.2,15.1c11.9,8.9,20.9,20.3,28.8,33.3
		c24.4-10.2,49.4-18.5,76.2-20.3c26.6-1.8,52.5,0.2,77,8c8.5-10.7,16-21.5,24.8-31.1c14.7-16.1,32.7-27.5,54.5-30.7
		C493.9-2.7,516,4.3,535,20.2c14.5,12.2,28,25.7,43,37.2c21.5,16.4,46.2,25,73.3,26.4c7.3,0.4,14.6,0.4,22,0.4
		c4.3,0,6.4,1.6,7.1,6.2c7.2,44.8-3.9,84.9-31.5,120.5c-9.4,12.1-20.4,23-33.8,30.6c-7,4-4.6,9-3.8,14.3c-0.3,1.3-0.8,2.7-0.7,3.9
		c0.5,4,1.3,8,1.9,12c-2.4-0.3-5.1,3.6-4.6,6.8c0.1,0.6,0.4,1.3,0.6,1.9c1.2,2.7,4.1,5.7-0.3,8c-2.9,1.5-8.7-1.5-10-4.8
		c-0.4-1.1-0.2-2.4-0.7-3.4c-0.8-1.7-1.9-3.3-2.9-4.9c-1-1.6-3.3-3.7-2.9-4.7c0.6-1.7,3-2.8,4.7-4c0.6-0.5,1.5-0.7,3-1.3
		c-5.3-6.6-3.4-14.3-4-21.6c-0.1-1.4-0.9-2.8-1.7-4c-2.4-3.6-1.8-8.5,1.4-11.5c2.6-2.4,4.9-5,7.4-7.6c9.4-8.9,19.8-16.9,28-26.7
		c17.1-20.8,26.3-45,27.2-72.2c0.4-11.3,0.5-11.3-11.2-10.7c-4.7-1-9.3-2.2-14-3.1c-35.6-6.6-65.6-23.7-91.7-48.3
		c-9.2-8.6-18.7-16.8-28.6-24.6c-8.1-6.4-18.3-9-28.3-9.6c-7.3-0.4-14.8,2.6-22.3,4.1c-1.4-4-3.6-7.8-8.5-6.3
		c-4.6,1.4-8.8,4-13.1,6.3c-3.3,1.7-5.1,1.2-6.4-2.7h5.1c-2.6-2.4-4.8-4.5-7-6.5c-0.3-0.3-1.1-0.6-1.3-0.5c-3.2,3-6.4,6-9.6,9
		c2,1.4,4,2.8,6,4.2c0.4,0.3,0.7,0.6,0.3,0.3c-2.4,4.6-4.4,9-7,13.1c-2.9,4.5-0.3,5.9,3.3,6.9c1.4,0.4,3,0.3,4.4,0.5
		C426.3,55.6,425,57.4,423.7,59.1L423.7,59.1L423.7,59.1L423.7,59.1z M154.6,26.8c1.4,0.9,2.8,2,4.3,2.7c2.4,1.1,4.9,3.1,7.2,2.8
		c3.7-0.4,7.3-2.3,10.9-3.5C169.5,27.2,162.3,24.4,154.6,26.8c-5.4,0.9-10.8,1.7-16.1,2.8c-1,0.2-1.6,2.1-2.3,3.3
		c1.3,0.3,2.5,1,3.8,0.9c2.1-0.1,4.2-0.8,6.3-1C150.3,32.5,153.3,30.9,154.6,26.8L154.6,26.8L154.6,26.8z M125.9,37.4
		c-0.4-0.5-0.8-0.9-1.2-1.4c-4.7,3.4-9.4,6.9-14.2,10.3c0.2,0.5,0.5,1.1,0.7,1.6c3.4-0.2,7.7,0.8,10-0.9
		C123.7,45.1,124.4,40.7,125.9,37.4z M328.9,69.4c0.2,0.7,0.4,1.4,0.6,2.1c1.5-0.4,3-0.6,4.4-1.2c0.2-0.1-0.2-1.7-0.3-2.6
		C332,68.3,330.5,68.9,328.9,69.4z"/>
	<path class="st0" d="M612.6,271.8c-0.7-4-1.4-8-1.9-12c-0.2-1.3,0.4-2.6,0.7-3.9c6.2,26,5.6,52.2,2.6,78.5
		c-3.7,33.2-15.2,63.8-31.7,92.5c-9.1,15.8-19.1,31.1-32.3,44c-12.4,12-25,23.7-37.6,35.5c-0.7,0.7-3.8,3-4.7,3.5
		c0.4-0.7,2.7-3.5,3.2-4c4.2-3.9,5.1-8.5,2.6-13.6c-0.4-0.8-1.3-1.3-2-1.9c-0.6,0.7-1.4,1.3-1.8,2c-0.3,0.5,0,1.5-0.3,1.9
		c-1.4,1.5-2.9,2.9-4.4,4.3c-1.1-1.9-2.8-3.8-3-5.8c-0.3-3.7,0.3-7.4,0.5-11.1c0.5-0.6,1-1.3,1.6-1.8c17.2-13.8,32.4-29.5,44.5-47.8
		c9-13.7,16.5-28.3,24.7-42.5c1.2-0.7,2.9-1,3.5-2.1c1.3-2.4,2.5-5.1,3-7.8c1.5-8.2,8.4-9.5,14.6-10.6c9.3-1.6,12.7-4.1,14.9-13.3
		c0.3-1.1,0.4-2.2,0.7-3.6c-7.4,5.1-15.8,2.6-18.2-6.7c-1-3.8,1-6.1,5-5.9c4.9,0.2,9.9,0.6,15.9,1c0.5-9.9,1.2-19.7,1.5-29.6
		c0.4-11.6,1.8-23.2-0.8-34.7C613.3,274.7,612.9,273.3,612.6,271.8L612.6,271.8L612.6,271.8z"/>
	<path class="st0" d="M70.6,81c0,0.3,0,0.6,0,0.9c-4.1,3.1-8.1,6.3-12.3,9.3c-0.5,0.4-1.6,0-2.4,0.1c-3.4,0.4-6.8,0.8-10.1,1.4
		c-1.4,0.3-2.7,1.6-4,1.6C31,94.2,20.2,94,9.4,93.8C6,93.8,3.3,95,2.9,98.5C2.3,104.2,2,110,1.9,115.8c0,0.7,1.9,2.3,2.6,2.1
		c2.1-0.6,4.4-1.5,6-2.9c3.9-3.5,12.2-4.7,17.7-1.6c-7.6,3-4.8,8.4-3.7,13.5c0.4,4.3,0.6,8.6,1.2,12.9c3.6,27.4,16.5,49.9,36.1,69
		c2.3,5.6,2.3,5.5-3.9,6.7c-1.6,0.3-3.1,1.3-4.6,1.8c-4.2,1.3-8.2-0.1-9.2-3.5c-1.2-4.1,0.6-6.7,4.5-8.1c1-0.4,1.9-0.9,3.2-1.6
		c-7.8-2.5-9-2-10.6,4.8c-0.1,0.5-0.2,1-0.4,1.5c-0.6,2.7-2.4,6-1.5,8.1c0.8,1.8,4.9,2,6.9,3.7c2.3,2,3.8,4.9,6,7.9
		c5.3-1.4,10.3,0,13.8,5.5c0.5,0.8,1.4,1.4,2.3,1.9c3.4,1.8,4.8,4.2,2.2,7.3c1.1,1.7,2,3.1,2.9,4.5c-31.5-17.1-51.8-43.9-65-76.6
		c-8.1-20.2-9.3-41.3-7.8-62.7c0.2-3.3,0.3-6.7,0.5-10c0.4-5.2,2.4-7,7.6-7c13.9-0.2,27.9,1.2,41.4-3.1C57.1,87.4,63.8,83.9,70.6,81
		z"/>
	<path class="st0" d="M431.6,548.9c1.8-1.1,3.5-2.5,5.4-3.4c15-6.9,30.1-13.5,45.1-20.5c4.3-2,8.4-4.8,12.4-7.4
		c1.2-0.8,1.9-2.6,2.9-4.1c3.6-1.4,7.7-3,11.9-4.6c-22.5,16.3-46.6,29.6-73,38.7C434.8,548.1,433.2,548.4,431.6,548.9L431.6,548.9
		L431.6,548.9z"/>
	<path class="st1" d="M461.6,29.6c7.4-1.5,15-4.5,22.3-4.1c10,0.6,20.1,3.2,28.3,9.6c9.9,7.8,19.5,16,28.6,24.6
		c26.2,24.6,56.2,41.7,91.7,48.3c4.7,0.9,9.3,2,14,3.1c-0.9,9.1-1.6,15.5-6.7,22.7c-15.3,21.8-35.8,41.3-62.2,47.5
		c-5.9,1.4-13.1,0-19.1,0.9c-0.2,0.4,0.6,0.7-1.5,1c9.8,7.1,21.7,12.2,30.1,21.7c-9.2,6.9-21.9,12.4-33.5,10
		c-51.3-42.3-74.1-96.1-65.9-163c-14.5-0.8-27.3,4.6-37.9,15c-14.3,14-20.8,32-25.1,50.9c-0.4,1.9-0.6,3.9-0.9,5.8
		c1.4,0.8,6.7-0.2,7.9,0.9c3,2.8,8.7,8.8,11.8,11.5c13.8,12.1,17.7,26,27.1,41.8c-11.2-1.2-22.3-3.1-33.5-3.5
		c-17.4-0.7-34.8-0.6-52.2-0.6c-8.1,0-16.2,0.5-24.3,1.4c-24.2,2.7-47.5,8.4-68.3,21.7c-4.4,2.8-8.2,6.6-12.9,10.3
		c-9.4-5.8-20.6-7.1-32.1-5.3c-4.1,0.7-8.1,2.6-12.2,3.7c-1.3,0.4-3.4,0.6-4.1-0.2c-12.4-12.8-28.3-18.7-45.1-22.6
		c-6.9-1.6-13.9-3-22-4.7c2.7-4.7,5.1-9.5,8.1-13.9c27.3-39.4,63.3-66.4,110.1-78.4c13.4-3.5,26.9-5.1,40.7-5.9
		c25.6-1.5,50.1,3.3,74.2,11.3c6.5,2.1,6.2,1.9,9.6-4.1c5.4-9.5,11.2-18.7,16.9-28c1.3-1.8,2.6-3.5,4-5.3c2.1-2.1,4.1-4.2,6.2-6.2
		C441.9,39.8,450.6,33,461.6,29.6L461.6,29.6L461.6,29.6L461.6,29.6z"/>
	<path class="st1" d="M288.7,388.8c2.8-11.8,4-23.6,2-35.7c-3.3-20.3-12.9-37.3-26.6-51.9c-7.9-8.3-17.7-14.8-26.9-22.3
		c8.7-1.4,17.8-2.8,27.8-4.4c-12.3-7.1-24.7-8.8-37.2-6c1.9-7.7,4-15.2,5.7-22.7c2.4-10.6,11.5-17.1,24.3-17
		c9.6,0.1,20.9,7.3,22,17.7c1.5,13.6,3.6,27.3,10.9,39.3c4.2,6.9,9.3,13.3,13.9,20c5.2,5.7,10.5,9.2,15.7,14.9
		c0.7,0.7,4.7,4.3,5.5,4.9c22.6,17.4,40.2,15.3,67.5,10c20.9-4,21.3-5.9,48-26.2c2.4-4.7,6.9-13.3,8.4-18.5c9.5-16,14.2-33.2,14-52
		c-0.1-19.9,13.4-22.9,26.3-19.3c10.2,2.9,20.4,5.6,30.6,8.6c2.3,0.7,4.5,1.9,6.8,2.9c1,3,6.8,4.9,7.9,7.8
		c11.4,30.5,11.9,68.6,4,100.1c-13.4,53.4-51.8,93-99.3,119.2c-36.4,20.1-76.8,22.1-117.9,17.3c-21.8-2.5-39.1-9.2-57.4-21.6
		c-1.8-1.2-6.2-2.3-8.4-2.4c-11.7-0.3-21.4-1.6-32.2-6.7c-2.6-1.3-6.1-3.8-8.7-4.9c-2.2-1.8-4.3-3.6-7.3-6c4,0,7,0,10,0
		c10.6-0.1,21.2,0,31.8-0.5c12.3-0.6,24.6-1.3,36.7-2.9c17.6-2.3,34.4-7.7,48.3-19.3c5.9-4.9,10.9-11,16.5-16.8
		c1.7,3.6,3.3,7.3,5.2,10.9c0.9,1.7,1.8,4.1,3.3,4.8c3.3,1.4,7.3,3.2,10.4,2.5c4.5-1,6.8-5.6,6.2-10.2c-0.7-4.6-1.7-9.7-4.2-13.5
		c-5.7-8.7-12.2-16.9-18.9-24.9c-2-2.4-5.5-3.6-8.5-4.8c-3.9-1.6-7.9-0.3-9.2,3.5c-1,2.9,0.1,6.5,0.5,9.8c0.2,1.5,1,2.9,1.5,4.3
		c-2.4,2.2-7.5,7.1-10.7,8.9C314.7,392.7,296.7,395.4,288.7,388.8L288.7,388.8L288.7,388.8z"/>
	<path class="st2" d="M215.4,439.9c2.9,0.8,6,1.1,8.6,2.4c10.8,5.1,22.3,6.3,34.1,6.6c2.2,0.1,4.8,0.4,6.6,1.6
		c18.3,12.4,38.5,19.6,60.4,22.1c41.1,4.8,80.5-1.5,116.9-21.6c47.5-26.2,80.7-64.4,94.2-117.8c7.9-31.5,5.8-62.7-5.6-93.2
		c-1.1-3-2-6-3-9c4.6,2.1,9.3,4,13.8,6.3c13,6.6,25.8,13.6,39,19.7c4.8,2.2,7.5,4.9,8,9.9c1.1,11.7,3.2,23.4,3,35.1
		c-0.6,29.2-4.8,57.8-17.2,84.7c-0.4,0.9-3.9,7.8-4.1,8.8c-8.2,14.2-12.4,22.9-21.4,36.6c-12.1,18.4-27.4,34-44.5,47.8
		c-0.6,0.5-1.1,1.2-1.6,1.8c-11.7,8-23.2,16.5-35.3,23.9c-26.7,16.2-56.3,25.1-86.9,29.9c-25.2,4-50.7,3.2-76.2-0.4
		c-32-4.5-62-14.6-90.5-29.4c-8.4-4.3-16.1-9.9-24.1-14.8c-4.5-4.3-8.9-8.7-12.9-13.2c-12.5-14.1-22.7-29.7-29.7-47.2
		c-0.5-1.4,1.8-4.1,1.7-5.7c7.6,3,15.3,6,22.9,9.1c1,0.4,1.9,1.4,2.6,2.2c17.2,20.1,39.2,29.4,65.4,28.9c4.6-0.1,9.2-2,13.8-3.7
		C239.7,455.6,226.2,450.2,215.4,439.9L215.4,439.9L215.4,439.9z"/>
	<path class="st1" d="M140.5,350.9c6.5-18.1,16.3-33.8,31.5-46.1c18.3-14.8,40-16.1,59.1-2.2c16.2,11.8,28.3,27,35,45.9
		c7.1,19.8,4,38.1-12.5,53.4c-9.7,9-22.2,11.7-35.2,7.5c-10.1-3.2-19.5-3.9-29.8,0.1c-10.7,4.1-21.2,1.3-30.6-5.2
		c-2.7-1.9-5.1-4.2-7.6-6.3C139.2,383.8,136.5,368,140.5,350.9L140.5,350.9L140.5,350.9L140.5,350.9z M214.8,339.2
		c2.6,10.1,4.9,20.4,8.1,30.3c1,3.2,4.2,6.4,7.3,8.1c5.3,2.9,10.6,1.3,15-2.7c4.3-4,6-10.2,3.3-15.4c-4.6-9-9.9-17.6-14.9-26.4
		c-2.6-4.5-6.2-7.5-11.8-6.3C217.9,327.7,216,332,214.8,339.2L214.8,339.2L214.8,339.2z M188.7,339.7c0-1.2,0-2.3,0-3.5
		c-0.1-4.1-1.2-7.9-5.4-9.2c-3.9-1.3-7.4,0.7-9.3,4.1c-5.5,9.6-11.3,19-15.9,29c-3.3,7.2,1.2,15.6,8.4,18.3
		c6.5,2.4,13.2-0.9,15.7-8.9"/>
	<path class="st1" d="M61.6,208.7c-19.6-19.1-32.4-41.6-36.1-69c-0.6-4.3-0.8-8.6-1.2-12.9c0.1-2.8,0.3-5.5,0.4-8.8
		c3,0,5.6,0.2,8.2,0c6.6-0.6,13.3-0.7,19.7-2.2c26.3-6.3,47.3-20.9,64-41.9c0.7-0.7,1.4-1.3,2.1-2l7-6.9l-0.3-0.2l0.3,0.2
		c1.3-1.1,2.5-2.1,3.8-3.2c5.3-3,10.7-6,16-9c2.6-0.6,5.3-1.3,7.9-1.9c2.7-0.1,5.4-0.2,8-0.3c13.3,1.3,24.9,6.2,34.4,15.7
		c1.4,1.4,2.5,3,3.7,4.5c-1.6-0.9-3.7,5.9-5.3,5c-14.4-8.6-27.9-15.6-43.1-6.8c-10.4,6-14.3,12.8-17,24.1
		c-3.2,14.1-5.2,28.6-8.9,42.6c-3.7,14.2-9.9,28.5-15.9,42.1c-7.2,0.7-14.4,1-21.5,2.2c-6.6,1.1-13.1,2.9-19.4,5
		c-3.9,1.3-5.7,4.5-5.8,8.9C62.8,198.8,62.1,203.7,61.6,208.7L61.6,208.7L61.6,208.7z"/>
	<path class="st2" d="M553.5,214.9c11.3-0.2,21.4-3.7,30.6-10.6c-10.2-7.3-20-14.4-29.9-21.5c0.2-0.4,0.5-0.8,0.7-1.2
		c6-0.9,12.1-1.4,17.9-2.8c26.5-6.2,46.4-22,61.7-43.8c5.1-7.2,8-15.9,11.9-23.9c11.7-0.7,11.6-0.7,11.2,10.7
		c-0.9,27.2-10,51.4-27.2,72.2c-8.2,9.9-18.6,17.9-28,26.7c-5.3,3.3-10.5,6.8-16,9.9c-1.5,0.9-4.1,1.5-5.4,0.7
		C571.9,226.1,562.7,220.4,553.5,214.9L553.5,214.9L553.5,214.9z"/>
	<path class="st2" d="M109.6,177.8c4.7-14,10.1-27.8,13.8-42c3.7-13.9,5.2-28.4,8.4-42.5c2.6-11.3,8.3-21.2,18.7-27.2
		c15.1-8.8,30-6.4,44.4,2.2c1.6,0.9,3.1,1.8,4.7,2.7c3.8,4.9,7.7,9.8,11.3,14.9c0.5,0.7,0,3.1-0.8,3.7c-5.8,4.9-11.8,9.6-17.8,14.4
		c-4-5.6-7.4-11.1-11.5-16c-6.7-7.9-16.4-10-22.3-3.9c-4.2,4.3-7.5,10.4-8.7,16.2c-2.6,11.9-3.4,24.3-5.3,36.4
		c-2.1,12.9-4.5,25.7-7.2,38.5c-0.2,1.1-2.8,2.5-4.4,2.6C125.2,177.9,117.4,177.8,109.6,177.8L109.6,177.8L109.6,177.8z"/>
	<path class="st1" d="M148.7,424.8c0.1,1.6-0.2,3.3,0.3,4.7c7,17.5,16.5,33.3,29.1,47.4c4,4.5,7.7,9.3,11.5,14
		c-36.1-25.5-64.7-57.4-81.4-98.8c-10.2-25.3-14.1-52-14.4-79.2c1-0.1,2.4-0.9,3.2,0c7.4,7.9,21,13.6,26.6,17.9l-3.8,12
		c-3.7,11.1-4,22.6-2.7,34c1.2,10.8,5.4,20.6,12.4,29.1c4,4.4,8.1,8.7,12.1,13.1c1,0.9,2,1.9,3.1,2.8
		C145.9,422.8,147.3,423.8,148.7,424.8L148.7,424.8L148.7,424.8z"/>
	<path class="st2" d="M449.8,290.8c-1.4,5.2-2,10.8-4.4,15.5c-9.8,19.5-26.3,30.7-47.3,34.8c-27.2,5.2-52.9,1.2-75.6-16.2
		c-0.8-0.6-1.5-1.3-2.2-2c4.2,0.9,8.3,1.9,12.6,2.6c1.5,0.2,3.1-0.3,4.6-0.5c29.6,7.5,58.4,6.8,85.8-8.4
		C434.4,310.4,442.7,301.2,449.8,290.8L449.8,290.8L449.8,290.8z"/>
	<path class="st0" d="M129.4,405.9c-7-8.5-11.1-18.3-12.4-29.1c-1.3-11.4-1-22.9,2.7-34c4.3-0.7,7,0.6,9,4.9
		c2.4,5.1,7.4,3.4,11.7,3.1c-4,17.2-1.2,33,9.8,47c0,1.2-0.6,2.8,0,3.6c3.4,5,2.9,9.7-1.2,13.9c-1.8,1.8-3,4.3-4.4,6.5
		c-1-0.9-2-1.9-3.1-2.8c0.3-1.3,1.2-2.8,0.9-4C141.1,410.4,134.5,406,129.4,405.9L129.4,405.9z"/>
	<path class="st3" d="M313.3,248c1.6-19.5,11-35.3,29.3-45.2c5-2.7,10.6-4.6,16.1-6.3c4.6-1.4,9.9,1.5,10.8,5.6
		c0.9,4.6-1.3,7.5-5.6,9.1c-13,4.9-23.6,12.7-28.9,26.1c-1.6,3.9-2.2,8.2-3.2,12.4c-0.3,1.3-0.3,2.6-0.6,3.9
		c-1.6,6.7-4.9,9.8-9.8,9.1c-4.3-0.5-7.8-5.5-7.9-11.3C313.3,250.7,313.3,249.9,313.3,248L313.3,248z"/>
	<path class="st2" d="M423.7,123.6c18.6-4.1,32.5,6,46.5,15.5c1.2,0.8,2,2.2,2.6,3.6c6.2,12.7,12.3,25.4,18.5,38.2
		c0.3,0.5,0.4,1.2,0.7,2.4c-7.5-1.9-14.5-3.6-21.5-5.4c-9.4-15.7-20.9-29.7-34.7-41.8"/>
	<path class="st3" d="M101.6,242.9c2.2-22.5,18.9-40.6,41-44.3c1.6-0.3,3.4-0.1,5,0.2c4.1,0.9,6.9,3.1,7.1,7.7
		c0.2,4.6-2.3,7.2-6.4,8.2c-16.8,4.1-26.7,14.1-28.8,31.7c-0.7,5.8-4.8,9-9.7,8.4C104.8,254.3,101.5,249.3,101.6,242.9L101.6,242.9
		L101.6,242.9z"/>
	<path class="st2" d="M288.7,388.8c13.9,2.5,27,0.3,39.4-6.6c3.2-1.8,6.4-3.5,9.6-5.3c-5.2,9.7-13.6,16.2-22.7,21.6
		c-10.8,6.5-22.5,10-35.3,9.2C282.8,401.2,285.8,395,288.7,388.8L288.7,388.8L288.7,388.8z"/>
	<path class="st2" d="M123.5,330.8c-10.2-3-19.3-7.8-26.7-15.7c-0.9-0.9-2.1-1.5-3.1-2.2v-8.8c11.1,7.1,21.9,14,33.2,21.1
		C126,326.7,124.8,328.8,123.5,330.8L123.5,330.8z"/>
	<path class="st3" d="M459.2,196.8c1.7,0,3.6-0.5,4.9,0.1c1.8,0.9,4.2,2.8,4.2,4.2c0,1.5-2.4,3.9-4.1,4.4c-3,0.7-6.4,0.8-9.3,0
		c-2.1-0.5-4.9-2.6-5.2-4.3c-0.6-3.4,2.3-4.6,5.5-4.4C456.6,196.9,457.9,196.8,459.2,196.8L459.2,196.8L459.2,196.8z"/>
	<path class="st2" d="M337.5,325c-1.5,0.2-3.1,0.7-4.6,0.5c-4.2-0.7-8.4-1.7-12.6-2.6c-5.2-5.7-10.5-11.4-15.7-17.1
		C314.4,314.3,324.8,321.6,337.5,325L337.5,325L337.5,325z"/>
	<path class="st0" d="M116.7,73.9c-16.7,21-37.7,35.6-64,41.9c-6.4,1.5-13.1,1.6-19.7,2.2c-2.6,0.2-5.2,0-8.2,0
		c-0.2,3.2-0.3,6-0.4,8.8c-1.1-5.1-3.9-10.5,3.7-13.5c-5.5-3-13.7-1.9-17.7,1.6c-1.6,1.4-3.9,2.3-6,2.9c-0.7,0.2-2.6-1.4-2.6-2.1
		C2,110,2.3,104.2,2.9,98.5c0.4-3.5,3-4.8,6.5-4.7C20.2,94,31,94.2,41.7,94.2c1.3,0,2.6-1.3,4-1.6c3.3-0.6,6.7-1,10.1-1.4
		c0.8-0.1,1.9,0.3,2.4-0.1c4.2-3,8.2-6.2,12.3-9.3c4.3-2.8,8.5-5.6,12.8-8.3c1.2-0.7,2.5-1.1,3.8-1.6c0.5,1.4,0.8,2.8,1.4,4.1
		c1.4,3.2,2.4,6.7,4.6,9.3c1.1,1.3,4.3,1.2,6.4,1c0.9-0.1,2.2-2,2.4-3.2c0.1-0.7-1.4-2.1-2.5-2.5c-1.5-0.6-3.5-0.1-4.8-0.9
		c-1.3-0.7-2.8-2.5-2.8-3.7c0-1.3,1.8-3.7,2.7-3.7c4.4,0,8.7,0.8,13.1,1.2C110.7,73.7,113.7,73.7,116.7,73.9
		C116.7,73.9,116.7,73.9,116.7,73.9z"/>
	<path class="st0" d="M461.6,29.6c-11,3.4-19.7,10.2-27.8,18.1c-2.1,2-4.1,4.1-6.2,6.2c-1.5-0.1-3-0.1-4.4-0.5
		c-3.6-1-6.2-2.4-3.3-6.9c2.6-4,4.6-8.4,7-13.1c0.4,0.4,0.1,0-0.3-0.3c-2-1.4-4-2.8-6-4.2c3.2-3,6.4-6,9.6-9c0.2-0.1,1,0.2,1.3,0.5
		c2.2,2,4.4,4.1,7,6.5h-5.1c1.3,3.8,3.1,4.4,6.4,2.7c4.3-2.3,8.5-4.9,13.1-6.3C458,21.8,460.2,25.6,461.6,29.6L461.6,29.6
		L461.6,29.6L461.6,29.6z"/>
	<path class="st0" d="M153.5,51c-2.6,0.6-5.3,1.3-7.9,1.9c0.4-1.4,0.8-2.7,1.1-3.9c-2.9-0.6-5.5-0.8-7.9-1.7c-3-1.1-3.2-3-0.9-5.3
		c3.2-3.1,16.2-5.1,19.9-2.6c1.3,0.8,2.6,3.2,2.3,4.3c-0.5,1.5-2.4,2.9-4,3.7C154.5,48.3,151.6,47.6,153.5,51L153.5,51L153.5,51z"/>
	<path class="st0" d="M125.9,37.4c-1.5,3.3-2.2,7.7-4.7,9.6c-2.2,1.7-6.6,0.7-10,0.9c-0.2-0.5-0.5-1.1-0.7-1.6
		c4.7-3.4,9.4-6.9,14.2-10.3C125.1,36.5,125.5,36.9,125.9,37.4z"/>
	<path class="st0" d="M154.6,26.8c7.7-2.4,15,0.3,22.4,2c-3.6,1.2-7.2,3.1-10.9,3.5c-2.3,0.2-4.9-1.7-7.2-2.8
		C157.3,28.8,156,27.8,154.6,26.8L154.6,26.8L154.6,26.8z"/>
	<path class="st0" d="M154.6,26.8c-1.3,4-4.3,5.6-8.3,6c-2.1,0.2-4.2,0.9-6.3,1c-1.2,0.1-2.5-0.6-3.8-0.9c0.8-1.1,1.4-3,2.3-3.3
		C143.8,28.5,149.2,27.7,154.6,26.8L154.6,26.8L154.6,26.8z"/>
	<path class="st0" d="M125.9,65.1l-7,6.9c-2.8-3.6-2.1-6,2.2-6.8C122.6,64.9,124.2,65.1,125.9,65.1z"/>
	<path class="st0" d="M129.6,61.9c-1.3,1.1-2.5,2.1-3.8,3.2c-0.3-1.1-1-2.4-0.7-3.3c0.4-1.2,1.6-2.2,2.5-3.3
		C128.3,59.6,128.9,60.8,129.6,61.9z"/>
	<path class="st0" d="M328.9,69.4c1.6-0.6,3.1-1.1,4.7-1.7c0.1,0.9,0.5,2.5,0.3,2.6c-1.4,0.6-2.9,0.8-4.4,1.2
		C329.4,70.9,329.1,70.2,328.9,69.4z"/>
	<path class="st0" d="M214.8,339.2c1.1-7.2,3-11.5,6.9-12.4c5.5-1.2,9.2,1.8,11.8,6.3c5.1,8.7,10.3,17.4,14.9,26.4
		c2.7,5.3,1.1,11.4-3.3,15.4c-4.4,4-9.7,5.6-15,2.7c-3.1-1.7-6.2-4.9-7.3-8.1C219.7,359.6,217.5,349.4,214.8,339.2L214.8,339.2
		L214.8,339.2z"/>
	<path class="st0" d="M182.2,369.4c-2.5,8-9.1,11.3-15.7,8.9c-7.1-2.6-11.7-11.1-8.4-18.3c4.6-10,10.4-19.5,15.9-29
		c2-3.4,5.4-5.4,9.3-4.1c4.1,1.4,5.3,5.1,5.4,9.2c0,1.2,0,2.3,0,3.5"/>
	<path class="st0" d="M129.4,405.9c5.1,0.1,11.7,4.5,13,9.1c0.3,1.1-0.6,2.6-0.9,4C137.5,414.6,133.5,410.3,129.4,405.9L129.4,405.9
		L129.4,405.9z"/>
	<path class="st3" d="M76.2,196.8c2.2,0.1,3.1,0.1,3.4,0.1c0,0,0.4,0,0.9,0c0.1,0,0.1,0,0.2,0c4.4,0,5,0,5.8,0.4
		c0.2,0.1,2.5,1.1,2.9,3.4c0.1,0.9-0.1,1.6-0.2,2c-0.8,2-3,2.7-3.7,3c-0.8,0.2-1.5,0.3-2.8,0.3c-3.2,0.1-5.3,0.2-7.4-0.9
		c-0.6-0.3-1.2-0.7-1.8-1.4c-1-1.4-1.2-3.6-0.3-5c0.5-0.8,1.2-1.3,1.3-1.3C75.3,196.9,75.8,196.8,76.2,196.8L76.2,196.8z"/>
</g>
<g id="Layer_2_00000129179076515879225720000007291792461825946034_">
	<path class="st0" d="M62.2,184.5c0,0.1,0.5,12.1,0.5,12.3c2.1,8.7,2.9,5.8,5.4,14.4c1.5,5.2,3.2,10.6,4.3,16.1
		c0.6,2.4,1,4.9,1.3,7.6c1.4,11.7,1,23.4,1.5,35.1c0,0.6,0,1.2,0,1.7c0.3,0.5,0.5,1.1,0.8,1.6c0.5,1,1,2,1.5,3.1
		c0.5,0.4,1,0.9,1.5,1.3c0.3,0.2,1.4,1.2,1.7,1.4c3.5,2.6,7.2,4.8,11.1,6.7c0.4,0.2,0.9,0.5,1.3,0.7v-0.2
		c10.3,6.5,20.3,13,30.7,19.6c2.3,0.8,4.6,1.8,6.9,2.8c0.1,0,4,1.5,1.9,0.9c-0.1,0-0.2,0-0.2-0.1c0.3,0.1,0.8,0.3,0.6,0.3
		c2.3,0.3,4.8,0.1,7.1,0c1.2,0,2.3-0.1,3.5-0.2c-0.1,0,1.6-0.1,2.6-0.2c0.7-0.1,2.8-0.5,3.1-0.5c0.1,0,0.2,0,0.3-0.1
		c1.3-1.1,2.7-2,4.2-2.7c4.9-7,10.7-13.4,17.7-19.1c14.3-11.6,30.6-14.9,46.2-9.2c0,0,0,0,0,0c0.2-0.5,2.2-5.3,1.1-2.6
		c1-2.4,2-4.9,3-7.3c0.6-1.4,1.2-2.8,1.8-4.1c0-0.1,1.2-3.1,1.2-3.2c1.2-3.2,2-6.5,2.5-9.9c0,0-0.1,0-0.1,0c1.9-7.7,4-15.1,5.7-22.7
		c2.4-10.6,11.5-17.1,24.3-17c9.6,0.1,20.9,7.3,22,17.7c1.5,13.6,3.6,27.3,10.9,39.3c4.2,6.9,9.3,13.3,13.9,20
		c9.7,8.5,20.1,15.9,32.9,19.3c29.6,7.5,58.4,6.8,85.8-8.4c11.1-6.2,19.4-15.4,26.5-25.8c9.5-16,14.2-33.2,14-52
		c-0.1-19.9,13.4-22.9,26.3-19.3c10.2,2.9,20.4,5.6,30.6,8.6c0.1,0,0.2,0.1,0.3,0.1c-0.2-0.6-0.4-1.2-0.7-1.8
		c-0.4-1.1-0.9-2.2-1.3-3.3c-0.2-0.4-0.3-0.7-0.4-1c-0.1-0.1-0.2-0.3-0.3-0.7c-3.9-8.8-8.5-17.4-13.2-25.8c-1.1-1.9-2.2-3.8-3.3-5.6
		c0,0-0.2-0.4-0.5-0.7c-0.2-0.2-1.3-1.7-1.5-2c-0.5-0.6-1.9-1.5-2.2-2.2c0,0,0,0,0-0.1c-0.1-0.1-0.4-0.2-0.6-0.4
		c0,0.1-1.5-0.7-2.1-0.9c-0.3-0.1-0.5-0.2-0.8-0.3c-0.7-0.1-1.4-0.3-2.1-0.5c0,0.1,0,0.1,0.1,0.2c-7.5-1.9-14.5-3.6-21.5-5.4
		c-11.2-1.2-22.3-3.1-33.5-3.5c-17.4-0.7-34.8-0.6-52.2-0.6c-8.1,0-16.2,0.5-24.3,1.4c-24.2,2.7-47.5,8.4-68.3,21.7
		c-4.4,2.8-8.2,6.6-12.9,10.3c-9.4-5.8-20.6-7.1-32.1-5.3c-4.1,0.7-8.1,2.6-12.2,3.7c-1.3,0.4-3.4,0.6-4.1-0.2
		c-12.4-12.8-28.3-18.7-45.1-22.6c-6.9-1.6-13.9-3-22-4.7c0,0,0,0,0,0c-0.4,0-0.8,0.1-1.2,0.1c-8.8,0-17.6-0.6-26.4-0.6
		c-0.7,0-1.2,0-1.9,0.1c-0.5,0-1.1,0-1.5,0c-7.8,0.3-15.6,0.1-23.5,0.1c-7.2,0.7-14.4,1-21.5,2.2c-6.6,1.1-13.1,2.9-19.4,5
		c-3.9,1.3-5.7,4.5-5.8,8.9 M84.8,187.8c-2.1,0.6-4.6,0.2-6.9,0.1c-3.3-0.2-5.8-1.3-5.6-5.2c0.2-3.9,3-3.7,5.7-3.7c0.7,0,1.3,0,2,0
		l5.8,0.5c1.5,0.9,3.1,3.1,3,4.7C88.6,185.5,86.4,187.3,84.8,187.8L84.8,187.8z M147.6,196.9c-16.8,4.1-26.7,14.1-28.8,31.7
		c-0.7,5.8-4.8,9-9.7,8.4c-4.8-0.5-8.2-5.5-8.1-11.9l0,0c2.2-22.5,18.9-40.6,41-44.3c1.6-0.3,3.4-0.1,5,0.2c4.1,0.9,6.9,3.1,7.1,7.7
		C154.2,193.3,151.7,195.9,147.6,196.9L147.6,196.9z M363.1,193.4c-13,4.9-23.6,12.7-28.9,26.1c-1.6,3.9-2.2,8.2-3.2,12.4
		c-0.3,1.3-0.3,2.6-0.6,3.9c-1.6,6.7-4.9,9.8-9.8,9.1c-4.3-0.5-7.8-5.5-7.9-11.3c0-0.8,0-1.7,0-3.6l0,0c1.6-19.5,11-35.3,29.3-45.2
		c5-2.7,10.6-4.6,16.1-6.3c4.6-1.4,9.9,1.5,10.8,5.6C369.7,188.9,367.5,191.8,363.1,193.4L363.1,193.4z M463.7,187.7
		c-3,0.7-6.4,0.8-9.3,0c-2.1-0.5-4.9-2.6-5.2-4.3c-0.6-3.4,2.3-4.6,5.5-4.4c1.3,0.1,2.6,0,4,0l0,0c1.7,0,3.6-0.5,4.9,0.1
		c1.8,0.9,4.2,2.8,4.2,4.2C467.7,184.9,465.4,187.3,463.7,187.7L463.7,187.7z"/>
	<path class="st4" d="M312.6,230.1c1.6-19.5,11-35.3,29.3-45.2c5-2.7,10.6-4.6,16.1-6.3c4.6-1.4,9.9,1.5,10.8,5.6
		c0.9,4.6-1.3,7.5-5.6,9.1c-13,4.9-23.6,12.7-28.9,26.1c-1.6,3.9-2.2,8.2-3.2,12.4c-0.3,1.3-0.3,2.6-0.6,3.9
		c-1.6,6.7-4.9,9.8-9.8,9.1c-4.3-0.5-7.8-5.5-7.9-11.3C312.6,232.9,312.6,232.1,312.6,230.1L312.6,230.1L312.6,230.1z"/>
	<path class="st4" d="M100.9,225.1c2.2-22.5,18.9-40.6,41-44.3c1.6-0.3,3.4-0.1,5,0.2c4.1,0.9,6.9,3.1,7.1,7.7
		c0.2,4.6-2.3,7.2-6.4,8.2c-16.8,4.1-26.7,14.1-28.8,31.7c-0.7,5.8-4.8,9-9.7,8.4C104.2,236.5,100.8,231.5,100.9,225.1L100.9,225.1
		L100.9,225.1z"/>
	<path class="st4" d="M458.6,179c1.7,0,3.6-0.5,4.9,0.1c1.8,0.9,4.2,2.8,4.2,4.2c0,1.5-2.4,3.9-4.1,4.4c-3,0.7-6.4,0.8-9.3,0
		c-2.1-0.5-4.9-2.6-5.2-4.3c-0.6-3.4,2.3-4.6,5.5-4.4C456,179.1,457.3,179,458.6,179L458.6,179L458.6,179z"/>
	<path class="st4" d="M75.5,178.9c2.2,0.1,3.1,0.1,3.4,0.1c0,0,0.4,0,0.9,0c0.1,0,0.1,0,0.2,0c4.4,0,5,0,5.8,0.4
		c0.2,0.1,2.5,1.1,2.9,3.4c0.1,0.9-0.1,1.6-0.2,2c-0.8,2-3,2.7-3.7,3c-0.8,0.2-1.5,0.3-2.8,0.3c-3.2,0.1-5.3,0.2-7.4-0.9
		c-0.6-0.3-1.2-0.7-1.8-1.4c-1-1.4-1.2-3.6-0.3-5c0.5-0.8,1.2-1.3,1.3-1.3C74.6,179.1,75.2,179,75.5,178.9L75.5,178.9z"/>
</g>
</svg>
