<?xml version="1.0" encoding="UTF-8"?>
<svg id="Layer_1" data-name="Layer 1" xmlns="http://www.w3.org/2000/svg" width="682.538" height="562.907" viewBox="0 0 682.538 562.907">
  <defs>
    <style>
      .cls-1 {
        fill: #c8b8ad;
      }

      .cls-1, .cls-2, .cls-3, .cls-4, .cls-5, .cls-6, .cls-7 {
        stroke-width: 0px;
      }

      .cls-2 {
        fill: #fdfdfd;
      }

      .cls-3 {
        fill: #1d1d1d;
      }

      .cls-4 {
        fill: #1b1b1b;
      }

      .cls-5 {
        fill: #fffdf5;
      }

      .cls-6 {
        fill: #1a1a1a;
      }

      .cls-7 {
        fill: #1c1c1c;
      }
    </style>
  </defs>
  <path class="cls-6" d="M431.582,548.856c-12.314,3.298-24.507,7.182-36.971,9.756-18.913,3.906-38.177,4.201-57.466,4.292-29.724.14-58.46-5.17-86.591-14.286-34.3-11.115-65.945-27.554-93.857-50.296-31.116-25.353-54.295-57.035-70.127-94.029-9.552-22.318-14.7-45.616-17.173-69.715-2.804-27.32-1.168-54.278,4.346-81.099.292-1.418-.252-3.008-.407-4.518-.893-1.41-1.786-2.819-2.865-4.523,2.564-3.152,1.222-5.495-2.194-7.303-.858-.454-1.77-1.085-2.279-1.878-3.526-5.496-8.567-6.848-13.819-5.494-2.197-2.968-3.724-5.866-6.024-7.881-1.944-1.703-6.099-1.824-6.881-3.664-.893-2.101.862-5.328,1.47-8.065.108-.486.245-.967.358-1.452,1.565-6.723,2.738-7.299,10.562-4.761-1.302.632-2.234,1.196-3.24,1.552-3.911,1.386-5.677,3.988-4.467,8.093.997,3.384,4.95,4.861,9.153,3.525,1.575-.501,3.04-1.455,4.639-1.755,6.147-1.156,6.16-1.089,3.883-6.68.434-4.948,1.124-9.891,1.225-14.846.089-4.372,1.941-7.639,5.804-8.91,6.331-2.082,12.834-3.848,19.397-4.959,7.086-1.2,14.325-1.495,21.498-2.184,7.825.001,15.655.142,23.472-.117,1.537-.051,4.13-1.416,4.364-2.56,2.621-12.772,5.091-25.584,7.164-38.456,1.949-12.098,2.707-24.427,5.319-36.363,1.275-5.827,4.589-11.956,8.749-16.224,5.892-6.045,15.577-3.943,22.276,3.943,4.149,4.884,7.552,10.401,11.523,15.96,5.992-4.821,11.983-9.517,17.777-14.445.803-.683,1.315-3.001.795-3.736-3.597-5.084-7.504-9.949-11.311-14.885-1.24-1.508-2.366-3.129-3.737-4.507-9.481-9.532-21.091-14.463-34.369-15.718,1.265-6.354,5.838-.287,8.572-2.432.117-.865.475-2.008.386-3.115-.389-4.856,1.934-6.751,6.564-6.254,4.423.475,9.038.277,12.178,4.513.55.741,2.851,1.171,3.432.676.923-.787,1.846-2.894,1.406-3.696-1.033-1.884-2.796-3.408-4.416-4.913-.764-.71-1.879-1.043-2.836-1.547,1.265-1.19,2.359-1.596,2.996-1.223,2.815,1.651,5.312,4.547,8.273,5.089,4.854.889,3.264,5.493,5.309,7.171,2.264,1.858,7.077.806,9.067,2.763,6.256,6.151,11.995,12.899,17.343,19.869,2.446,3.188,2.579,8.264,8.026,8.702.247.02.658.824.612,1.218-.346,2.938,1.452,4.494,3.742,3.653,1.389-.51,1.851-3.313,2.938-4.947.951-1.431,2.032-2.872,3.361-3.923.96-.759,2.428-.864,3.656-1.299,7.958-2.819,15.871-5.777,23.902-8.369,1.626-.525,4.828,1.145,5.376.394,3.921-5.365,10.197-3.284,15.139-5.214,3.389-1.324,5.917.548,6.944,3.423-3.753,1.327-7.368,2.178-10.55,3.852-3.178,1.672-2.947,4.941.493,5.698,6.225,1.37,10.832,5.76,17.463,7.208,8.746,1.91,15.97-3.867,24.1-1.589.864.242,2.49-1.881,3.629-3.038,4.576-4.655,9.174-9.072,16.255-9.774,1.348-.134,2.338-2.674,3.744-3.786,1.327-1.05,3.165-2.598,4.466-2.342,6.506,1.282,13.094,2.582,19.292,4.859,5.371,1.972,11.57,3.443,13.8,10.15.242.727,2.693,1.517,3.517,1.096,2.174-1.109,3.945-2.977,6.013-4.336,2.147-1.412,4.346-3.346,6.714-3.677,3.563-.498,5.823-1.244,6.536-5.288.405-2.301,2.178-4.655,4.674-1.126-5.658,9.316-11.525,18.514-16.9,27.99-3.412,6.016-3.094,6.229-9.598,4.079-24.095-7.962-48.612-12.75-74.201-11.296-13.787.784-27.308,2.408-40.724,5.86-46.825,12.049-82.875,39.06-110.139,78.438-3.017,4.357-5.375,9.171-8.115,13.905,8.064,1.731,15.05,3.121,21.984,4.74,16.823,3.929,32.681,9.787,45.084,22.625.707.732,2.84.518,4.149.159,4.087-1.12,8.013-3.047,12.154-3.711,11.526-1.849,22.695-.567,32.091,5.279,4.644-3.774,8.455-7.522,12.861-10.341,20.79-13.302,44.119-18.945,68.273-21.693,8.041-.915,16.174-1.375,24.268-1.411,17.4-.076,34.818-.142,52.197.568,11.192.458,22.327,2.302,33.488,3.525,7.002,1.757,14.005,3.514,21.512,5.398-.359-1.191-.46-1.812-.722-2.355-6.132-12.737-12.259-25.476-18.458-38.18-.64-1.312-1.481-2.765-2.637-3.55-14.041-9.535-27.959-19.557-46.537-15.494.289-1.942.453-3.912.888-5.821,4.321-18.961,10.777-36.952,25.093-50.914,10.632-10.368,23.362-15.779,37.888-15.005-8.152,66.926,14.656,120.674,65.92,162.984,9.201,5.525,18.337,11.165,27.679,16.44,1.273.719,3.863.108,5.354-.743,5.44-3.105,10.672-6.573,15.983-9.904-2.452,2.532-4.806,5.17-7.382,7.569-3.211,2.992-3.838,7.902-1.403,11.539.8,1.195,1.577,2.635,1.692,4.02.609,7.311-1.349,14.967,3.992,21.585-1.551.681-2.369.887-3.002,1.348-1.702,1.238-4.058,2.303-4.707,3.993-.397,1.034,1.907,3.072,2.937,4.698,1.01,1.592,2.071,3.174,2.861,4.875.473,1.02.305,2.323.711,3.391,1.245,3.273,7.027,6.29,9.97,4.816,4.431-2.22,1.502-5.222.349-7.953-.257-.609-.52-1.244-.608-1.891-.444-3.271,2.22-7.155,4.635-6.828.338,1.439.697,2.873,1.012,4.317,2.513,11.52,1.118,23.138.759,34.715-.307,9.879-.992,19.747-1.51,29.621-6.051-.379-10.993-.74-15.942-.983-3.984-.195-5.965,2.143-5.008,5.923,2.354,9.295,10.74,11.787,18.154,6.678-.269,1.424-.44,2.536-.693,3.629-2.146,9.272-5.54,11.721-14.852,13.333-6.182,1.07-13.01,2.343-14.554,10.568-.51,2.717-1.678,5.391-3.003,7.838-.553,1.021-5.658,7.297-6.861,7.967.238-.956,3.69-7.878,4.095-8.757,12.386-26.878,16.629-55.503,17.18-84.688.22-11.669-1.887-23.386-2.994-35.075-.477-5.043-3.19-7.697-8.019-9.913-13.231-6.071-26.002-13.139-39.015-19.692-4.518-2.275-9.213-4.198-13.827-6.281-2.259-.978-4.444-2.211-6.789-2.891-10.186-2.951-20.424-5.725-30.635-8.591-12.907-3.623-26.41-.69-26.279,19.26.124,18.753-4.52,35.961-14.033,51.984-7.084,10.374-15.339,19.621-26.451,25.786-27.347,15.173-56.178,15.937-85.788,8.423-12.739-3.388-23.143-10.761-32.885-19.265-4.679-6.638-9.754-13.036-13.949-19.967-7.273-12.017-9.381-25.709-10.881-39.346-1.14-10.36-12.378-17.657-22.011-17.708-12.753-.067-21.916,6.415-24.273,16.984-1.691,7.582-3.787,15.073-5.735,22.732,12.499-2.743,24.909-1.107,37.181,6.031-9.982,1.577-19.037,3.007-27.781,4.388,9.219,7.531,19.023,14.001,26.889,22.306,13.767,14.534,23.397,31.623,26.649,51.879,1.948,12.135.751,23.949-2.012,35.745-2.961,6.201-5.923,12.401-9.046,18.941,12.802.821,24.502-2.732,35.286-9.192,9.126-5.466,17.564-11.897,22.739-21.63-.536-1.437-1.36-2.837-1.549-4.318-.42-3.282-1.521-6.96-.504-9.823,1.336-3.759,5.306-5.021,9.21-3.456,3.018,1.21,6.514,2.491,8.476,4.842,6.675,7.999,13.166,16.223,18.893,24.91,2.502,3.794,3.56,8.838,4.221,13.464.655,4.583-1.668,9.16-6.156,10.176-3.155.715-7.132-1.097-10.413-2.533-1.511-.661-2.398-3.041-3.282-4.786-1.843-3.639-3.497-7.374-5.17-10.946-5.643,5.804-10.61,11.853-16.506,16.791-13.898,11.64-30.657,16.958-48.276,19.299-12.157,1.615-24.464,2.264-36.728,2.871-10.57.524-21.173.389-31.762.525-3.009.039-6.02.006-9.994.006,2.98,2.455,5.135,4.23,7.29,6.006,10.719,10.308,24.226,15.667,37.88,21.389-4.612,1.734-9.173,3.615-13.773,3.714-26.201.563-48.188-8.808-65.385-28.86-.736-.858-1.595-1.798-2.599-2.209-7.611-3.119-15.273-6.115-22.919-9.149-1.353-1.004-2.707-2.008-4.06-3.011,1.45-2.172,2.607-4.635,4.41-6.459,4.176-4.222,4.651-8.962,1.231-13.938-.55-.8,0-2.356.042-3.562,2.513,2.096,4.889,4.389,7.564,6.254,9.356,6.523,19.93,9.362,30.596,5.242,10.302-3.98,19.769-3.345,29.84-.104,13.024,4.191,25.527,1.498,35.242-7.491,16.531-15.293,19.594-33.537,12.543-53.36-6.699-18.833-18.857-34.091-35.024-45.873-19.064-13.894-40.794-12.607-59.07,2.196-15.217,12.326-24.987,28.043-31.494,46.147-4.3.301-9.36,2.002-11.725-3.148-1.98-4.313-4.729-5.621-9.019-4.875,1.273-3.999,2.546-7.999,3.819-11.998,1.244-2.068,2.487-4.136,3.372-5.607-11.244-7.165-22.085-14.073-33.177-21.14v8.827c.278,27.207,4.184,53.851,14.377,79.157,16.686,41.427,45.29,73.27,81.415,98.8,8.027,4.978,15.772,10.499,24.131,14.836,28.499,14.783,58.507,24.849,90.472,29.378,25.479,3.61,50.972,4.439,76.219.408,30.551-4.878,60.147-13.711,86.881-29.933,12.129-7.36,23.556-15.876,35.301-23.868-.214,3.72-.82,7.476-.487,11.147.182,2.005,1.951,3.866,3.004,5.792,1.477-1.411,3.017-2.765,4.388-4.272.366-.402.029-1.385.339-1.91.451-.764,1.195-1.354,1.814-2.019.669.636,1.583,1.151,1.967,1.929,2.498,5.065,1.531,9.661-2.624,13.581-.53.5-.73,1.348-1.082,2.035l-.594.852c-4.138,1.611-8.276,3.222-11.882,4.627-1.008,1.481-1.636,3.24-2.882,4.08-3.989,2.688-8.027,5.421-12.369,7.445-14.968,6.974-30.086,13.626-45.11,20.483-1.927.879-3.632,2.245-5.44,3.385l.008-.007h0ZM313.271,247.952c0,1.943-.017,2.775.003,3.606.134,5.713,3.661,10.712,7.93,11.252,4.887.618,8.229-2.475,9.791-9.142.299-1.278.287-2.63.596-3.905,1.005-4.148,1.674-8.44,3.225-12.38,5.285-13.428,15.893-21.217,28.926-26.146,4.344-1.643,6.58-4.504,5.647-9.096-.829-4.082-6.164-7.028-10.758-5.619-5.483,1.682-11.028,3.558-16.052,6.268-18.328,9.887-27.693,25.671-29.308,45.162h0ZM101.552,242.916c-.09,6.416,3.296,11.397,8.092,11.906,4.935.523,9.053-2.632,9.744-8.45,2.083-17.529,12.031-27.605,28.823-31.678,4.103-.995,6.607-3.55,6.383-8.183-.223-4.607-2.999-6.788-7.087-7.658-1.598-.34-3.349-.456-4.952-.194-22.098,3.612-38.8,21.748-41.004,44.257h0ZM459.246,196.845c-1.322,0-2.649.071-3.966-.014-3.275-.213-6.092,1.045-5.538,4.428.285,1.741,3.165,3.819,5.222,4.326,2.958.729,6.362.683,9.326-.047,1.718-.423,4.053-2.819,4.074-4.355.02-1.426-2.459-3.289-4.228-4.203-1.304-.674-3.237-.132-4.89-.134h0ZM80.535,196.842c-.66,0-1.319.008-1.979-.001-2.71-.041-5.503-.227-5.673,3.669-.173,3.966,2.358,5.081,5.646,5.248,2.303.117,4.76.508,6.878-.127,1.619-.485,3.821-2.307,3.928-3.677.119-1.523-1.503-3.806-2.995-4.659"/>
  <path class="cls-6" d="M423.698,59.112c-2.496-3.529-4.268-1.175-4.674,1.126-.712,4.044-2.972,4.79-6.536,5.288-2.368.331-4.567,2.266-6.714,3.677-2.067,1.359-3.838,3.228-6.013,4.336-.824.42-3.276-.37-3.517-1.096-2.23-6.707-8.429-8.177-13.8-10.15-6.198-2.276-12.786-3.577-19.292-4.859-1.301-.256-3.14,1.292-4.466,2.342-1.406,1.112-2.396,3.653-3.744,3.786-7.082.701-11.679,5.119-16.255,9.774-1.138,1.158-2.765,3.28-3.629,3.038-8.13-2.278-15.354,3.499-24.1,1.589-6.631-1.448-11.238-5.838-17.463-7.208-3.439-.757-3.671-4.026-.493-5.698,3.182-1.674,6.797-2.524,10.55-3.852-1.026-2.875-3.554-4.747-6.944-3.423-4.942,1.93-11.218-.151-15.139,5.214-.548.75-3.75-.919-5.376-.394-8.031,2.592-15.944,5.55-23.902,8.369-1.228.435-2.696.54-3.656,1.299-1.329,1.051-2.41,2.492-3.361,3.923-1.087,1.634-1.549,4.438-2.938,4.947-2.29.841-4.088-.716-3.742-3.653.046-.394-.365-1.198-.612-1.218-5.447-.439-5.579-5.514-8.026-8.702-5.348-6.97-11.087-13.719-17.343-19.869-1.991-1.957-6.803-.906-9.067-2.763-2.045-1.678-.455-6.282-5.309-7.171-2.961-.542-5.458-3.438-8.273-5.089-.637-.373-1.731.033-2.996,1.223.956.504,2.071.837,2.836,1.547,1.62,1.505,3.384,3.029,4.416,4.913.44.802-.483,2.909-1.406,3.696-.581.495-2.883.066-3.432-.676-3.14-4.236-7.755-4.039-12.178-4.513-4.631-.497-6.954,1.399-6.564,6.254.089,1.107-.269,2.25-.386,3.115-2.734,2.145-7.307-3.922-8.572,2.432-2.679.102-5.358.204-8.037.306-1.955-3.332.946-2.648,2.575-3.449,1.612-.793,3.536-2.177,3.991-3.7.345-1.156-1.026-3.492-2.283-4.336-3.751-2.518-16.737-.561-19.927,2.562-2.315,2.266-2.106,4.206.875,5.278,2.404.864,5.037,1.091,7.91,1.669-.322,1.154-.705,2.528-1.087,3.901-5.333,3.003-10.666,6.006-15.999,9.009-.66-1.135-1.32-2.269-1.98-3.404-.866,1.088-2.074,2.062-2.485,3.301-.303.912.436,2.169.711,3.273l-.252-.196.26.184c-1.628.014-3.302-.215-4.874.089-4.253.823-4.945,3.163-2.164,6.79-.695.652-1.39,1.305-2.085,1.957-3.012-.156-6.032-.216-9.033-.49-4.371-.398-8.726-1.197-13.094-1.244-.968-.011-2.728,2.401-2.727,3.697,0,1.288,1.516,2.998,2.814,3.744,1.332.766,3.308.327,4.809.912,1.056.412,2.595,1.778,2.485,2.497-.186,1.214-1.431,3.108-2.371,3.195-2.166.2-5.363.271-6.432-1.021-2.143-2.588-3.184-6.106-4.593-9.279-.576-1.299-.924-2.698-1.376-4.052-1.278.538-2.657.914-3.814,1.644-4.311,2.718-8.549,5.552-12.814,8.343,0-.294-.003-.587-.004-.881,13.472-8.351,23.419-20.573,34.511-31.523,10.981-10.84,23.364-19.281,38.596-22.717,23.77-5.362,45.015.766,64.172,15.064,11.87,8.86,20.889,20.319,28.808,33.279,24.415-10.231,49.358-18.455,76.235-20.267,26.577-1.792,52.523.179,76.96,7.974,8.475-10.734,16.001-21.503,24.789-31.12,14.704-16.091,32.657-27.468,54.549-30.708,24.669-3.652,46.76,3.358,65.785,19.299,14.523,12.169,27.952,25.718,42.989,37.183,21.462,16.364,46.233,25.023,73.334,26.384,7.309.367,14.638.41,21.959.439,4.307.017,6.374,1.56,7.124,6.217,7.22,44.842-3.895,84.921-31.503,120.488-9.38,12.084-20.387,22.97-33.763,30.65-7.017,4.029-4.623,8.994-3.782,14.28-.252,1.318-.848,2.678-.693,3.946.492,4.022,1.265,8.01,1.929,12.01-2.415-.328-5.079,3.557-4.635,6.828.088.647.351,1.282.608,1.891,1.153,2.731,4.082,5.733-.349,7.953-2.943,1.474-8.726-1.542-9.97-4.816-.406-1.067-.238-2.371-.711-3.391-.79-1.702-1.852-3.283-2.861-4.875-1.031-1.625-3.335-3.664-2.937-4.698.649-1.69,3.005-2.755,4.707-3.993.633-.461,1.452-.667,3.002-1.348-5.34-6.619-3.383-14.274-3.992-21.585-.115-1.384-.892-2.825-1.692-4.02-2.435-3.637-1.808-8.547,1.403-11.539,2.575-2.4,4.929-5.037,7.382-7.569,9.404-8.857,19.844-16.86,27.997-26.749,17.126-20.771,26.273-45.03,27.166-72.193.373-11.35.535-11.344-11.21-10.671-4.653-1.029-9.28-2.196-13.963-3.066-35.59-6.615-65.572-23.736-91.745-48.32-9.169-8.612-18.747-16.845-28.642-24.609-8.14-6.387-18.33-9.015-28.284-9.592-7.321-.424-14.843,2.611-22.276,4.105-1.416-4.033-3.606-7.777-8.476-6.265-4.581,1.422-8.822,4.013-13.113,6.278-3.299,1.741-5.11,1.154-6.424-2.67h5.055c-2.612-2.42-4.808-4.484-7.048-6.497-.336-.302-1.136-.648-1.293-.504-3.246,2.957-6.429,5.983-9.625,8.995,1.993,1.39,3.993,2.771,5.975,4.177.378.268.688.632.313.281-2.441,4.623-4.403,9.05-7,13.066-2.911,4.501-.33,5.903,3.279,6.927,1.408.399,2.95.329,4.43.473-1.318,1.754-2.635,3.508-3.953,5.262v.003h0ZM154.58,26.847c1.418.915,2.762,1.983,4.27,2.708,2.364,1.137,4.944,3.053,7.244,2.814,3.702-.383,7.251-2.253,10.865-3.495-7.422-1.721-14.685-4.449-22.379-2.028-5.371.902-10.773,1.661-16.083,2.836-.967.214-1.558,2.126-2.323,3.255,1.265.319,2.545.95,3.79.886,2.12-.109,4.205-.789,6.327-.989,3.985-.374,6.993-1.959,8.289-5.988h0ZM125.911,37.396c-.411-.454-.822-.907-1.234-1.361-4.72,3.43-9.44,6.859-14.16,10.289.235.533.47,1.066.705,1.599,3.405-.194,7.724.813,9.973-.9,2.542-1.935,3.225-6.312,4.716-9.627ZM328.936,69.44c.207.71.414,1.42.621,2.131,1.466-.367,2.984-.617,4.35-1.216.231-.101-.193-1.699-.314-2.606-1.552.564-3.104,1.127-4.657,1.691Z"/>
  <path class="cls-6" d="M612.58,271.846c-.664-4.001-1.437-7.989-1.929-12.01-.155-1.268.441-2.628.693-3.946,6.221,26,5.555,52.2,2.64,78.536-3.679,33.243-15.246,63.79-31.722,92.526-9.066,15.812-19.126,31.131-32.326,43.959-12.364,12.015-25.021,23.729-37.578,35.544-.696.655-3.812,2.995-4.651,3.499.353-.687,2.706-3.504,3.235-4.003,4.154-3.92,5.122-8.516,2.624-13.581-.383-.777-1.298-1.292-1.967-1.929-.619.664-1.363,1.255-1.814,2.019-.31.525.027,1.507-.339,1.91-1.371,1.508-2.911,2.861-4.388,4.272-1.053-1.926-2.823-3.787-3.004-5.792-.333-3.671.273-7.426.487-11.147.546-.617,1.015-1.329,1.648-1.838,17.152-13.794,32.447-29.452,44.509-47.832,8.979-13.681,16.548-28.287,24.744-42.481,1.203-.669,2.948-1.045,3.501-2.067,1.325-2.446,2.493-5.12,3.003-7.838,1.544-8.224,8.372-9.497,14.554-10.568,9.311-1.612,12.706-4.062,14.852-13.333.253-1.093.424-2.205.693-3.629-7.414,5.109-15.8,2.617-18.154-6.678-.957-3.78,1.024-6.118,5.008-5.923,4.948.243,9.891.603,15.942.983.518-9.874,1.204-19.742,1.51-29.621.359-11.577,1.754-23.196-.759-34.715-.315-1.444-.673-2.878-1.012-4.317h0Z"/>
  <path class="cls-6" d="M70.58,80.968c0,.294.003.587.004.881-4.089,3.106-8.148,6.255-12.306,9.266-.542.392-1.604.005-2.409.107-3.374.431-6.762.806-10.104,1.423-1.396.258-2.691,1.552-4.031,1.552-10.764-.002-21.528-.148-32.29-.369-3.494-.072-6.103,1.196-6.514,4.715-.666,5.704-.919,11.465-1.059,17.209-.018.719,1.93,2.264,2.586,2.078,2.107-.595,4.359-1.457,5.969-2.879,3.945-3.483,12.189-4.675,17.673-1.632-7.556,2.988-4.772,8.426-3.683,13.503.378,4.287.599,8.594,1.161,12.856,3.611,27.379,16.5,49.936,36.056,68.995,2.276,5.591,2.264,5.524-3.883,6.68-1.599.301-3.064,1.255-4.639,1.755-4.203,1.336-8.155-.141-9.153-3.525-1.21-4.105.556-6.707,4.467-8.093,1.006-.356,1.938-.921,3.24-1.552-7.824-2.538-8.997-1.961-10.562,4.761-.113.485-.25.966-.358,1.452-.609,2.737-2.363,5.964-1.47,8.065.782,1.839,4.937,1.961,6.881,3.664,2.3,2.015,3.827,4.913,6.024,7.881,5.251-1.354,10.293-.002,13.819,5.494.509.793,1.42,1.424,2.279,1.878,3.416,1.808,4.758,4.151,2.194,7.303,1.08,1.704,1.972,3.114,2.865,4.523-31.531-17.137-51.768-43.873-64.958-76.556C.236,152.224-.917,131.138.536,109.738c.225-3.318.269-6.65.55-9.962.441-5.193,2.437-6.954,7.597-7.015,13.875-.166,27.933,1.182,41.404-3.149,7.031-2.26,13.675-5.724,20.493-8.644Z"/>
  <path class="cls-3" d="M431.582,548.856c1.808-1.14,3.513-2.506,5.44-3.385,15.023-6.857,30.142-13.509,45.11-20.483,4.342-2.023,8.38-4.757,12.369-7.445,1.246-.84,1.874-2.598,2.882-4.08,3.606-1.404,7.744-3.016,11.882-4.627-22.533,16.269-46.626,29.601-72.951,38.723-1.542.534-3.153.869-4.732,1.296h0Z"/>
  <path class="cls-5" d="M461.579,29.59c7.432-1.494,14.954-4.529,22.276-4.105,9.954.576,20.144,3.205,28.284,9.592,9.895,7.764,19.474,15.997,28.642,24.609,26.173,24.584,56.155,41.704,91.745,48.32,4.682.87,9.31,2.037,13.963,3.066-3.904,8.015-6.836,16.712-11.895,23.917-15.286,21.773-35.259,37.565-61.709,43.795-5.874,1.384-11.96,1.87-17.949,2.769-.241.406-.481.812-.722,1.218,9.845,7.077,19.689,14.154,29.875,21.477-9.151,6.925-19.25,10.475-30.57,10.645-51.264-42.31-74.072-96.058-65.92-162.984-14.526-.774-27.256,4.637-37.888,15.005-14.317,13.961-20.772,31.952-25.093,50.914-.435,1.909-.598,3.879-.888,5.821,1.381.836,6.728-.193,7.935.937,3.011,2.818,1.085,8.748,4.194,11.467,13.799,12.069,25.325,26.038,34.714,41.778-11.161-1.223-22.296-3.068-33.488-3.525-17.379-.711-34.797-.645-52.197-.568-8.094.036-16.227.496-24.268,1.411-24.154,2.748-47.483,8.391-68.273,21.693-4.406,2.819-8.218,6.567-12.861,10.341-9.396-5.845-20.565-7.127-32.091-5.279-4.141.664-8.067,2.592-12.154,3.711-1.309.359-3.442.573-4.149-.159-12.403-12.838-28.262-18.696-45.084-22.625-6.933-1.619-13.92-3.009-21.984-4.74,2.74-4.734,5.098-9.547,8.115-13.905,27.264-39.377,63.314-66.389,110.139-78.438,13.416-3.452,26.937-5.077,40.724-5.86,25.589-1.454,50.106,3.334,74.201,11.296,6.504,2.149,6.186,1.937,9.598-4.079,5.375-9.476,11.241-18.674,16.9-27.99,1.318-1.754,2.635-3.508,3.953-5.262,2.056-2.066,4.091-4.154,6.172-6.195,8.037-7.884,16.773-14.702,27.755-18.064l-.002-.004h0Z"/>
  <path class="cls-5" d="M288.721,388.794c2.763-11.796,3.96-23.61,2.012-35.745-3.252-20.256-12.881-37.345-26.649-51.879-7.867-8.305-17.67-14.775-26.889-22.306,8.744-1.381,17.798-2.811,27.781-4.388-12.272-7.138-24.682-8.774-37.181-6.031,1.948-7.66,4.045-15.151,5.735-22.732,2.357-10.569,11.52-17.051,24.273-16.984,9.632.051,20.871,7.348,22.011,17.708,1.5,13.637,3.607,27.329,10.881,39.346,4.195,6.931,9.27,13.329,13.949,19.967,5.247,5.705,10.494,11.411,15.741,17.116.726.677,1.403,1.419,2.186,2.022,22.608,17.399,48.32,21.411,75.553,16.178,20.939-4.024,37.468-15.289,47.261-34.77,2.367-4.708,2.969-10.302,4.382-15.489,9.513-16.023,14.157-33.23,14.033-51.984-.132-19.95,13.371-22.883,26.279-19.26,10.211,2.866,20.448,5.641,30.635,8.591,2.345.679,4.53,1.912,6.789,2.891,1.01,2.993,1.94,6.016,3.041,8.976,11.362,30.516,13.47,61.745,5.566,93.238-13.414,53.449-46.67,91.569-94.162,117.804-36.442,20.131-75.755,26.382-116.902,21.592-21.843-2.543-42.065-9.716-60.358-22.149-1.755-1.193-4.342-1.543-6.561-1.605-11.732-.326-23.24-1.466-34.063-6.603-2.648-1.257-5.731-1.595-8.614-2.355-2.155-1.775-4.31-3.551-7.29-6.006,3.974,0,6.985.033,9.994-.006,10.589-.136,21.192,0,31.762-.525,12.264-.608,24.571-1.256,36.728-2.871,17.619-2.341,34.377-7.659,48.276-19.299,5.897-4.939,10.864-10.987,16.506-16.791,1.674,3.572,3.327,7.307,5.17,10.946.884,1.745,1.77,4.125,3.282,4.786,3.281,1.436,7.258,3.247,10.413,2.533,4.488-1.017,6.811-5.594,6.156-10.176-.661-4.627-1.719-9.67-4.221-13.464-5.728-8.687-12.218-16.911-18.893-24.91-1.962-2.352-5.458-3.632-8.476-4.842-3.904-1.565-7.874-.302-9.21,3.456-1.017,2.863.084,6.541.504,9.823.189,1.481,1.013,2.881,1.549,4.318-3.195,1.762-6.397,3.511-9.582,5.289-12.348,6.892-25.47,9.142-39.397,6.592v-.002Z"/>
  <path class="cls-1" d="M215.45,439.942c2.883.76,5.967,1.099,8.614,2.355,10.823,5.137,22.332,6.277,34.063,6.603,2.22.062,4.807.412,6.561,1.605,18.292,12.432,38.515,19.606,60.358,22.149,41.147,4.79,80.46-1.46,116.902-21.592,47.492-26.236,80.747-64.355,94.162-117.804,7.904-31.493,5.795-62.722-5.566-93.238-1.102-2.959-2.032-5.982-3.041-8.976,4.614,2.084,9.309,4.006,13.827,6.281,13.013,6.553,25.784,13.622,39.015,19.692,4.829,2.216,7.541,4.87,8.019,9.913,1.107,11.689,3.214,23.406,2.994,35.075-.551,29.186-4.794,57.81-17.18,84.688-.405.879-3.864,7.806-4.102,8.761-8.197,14.194-12.399,22.896-21.377,36.577-12.063,18.38-27.357,34.039-44.509,47.832-.633.509-1.102,1.221-1.648,1.838-11.745,7.992-23.172,16.508-35.301,23.868-26.734,16.223-56.33,25.055-86.881,29.933-25.247,4.031-50.739,3.203-76.219-.408-31.966-4.53-61.974-14.595-90.472-29.378-8.36-4.336-16.105-9.858-24.131-14.836-3.828-4.68-7.497-9.503-11.515-14.014-12.531-14.067-22.089-29.935-29.054-47.387-.548-1.374-.23-3.094-.314-4.653,7.646,3.034,15.307,6.03,22.919,9.149,1.003.411,1.863,1.351,2.599,2.209,17.197,20.051,39.184,29.422,65.385,28.86,4.6-.099,9.162-1.98,13.773-3.714-13.654-5.723-27.161-11.081-37.88-21.389h-.001Z"/>
  <path class="cls-5" d="M140.474,350.868c6.507-18.104,16.276-33.821,31.494-46.147,18.276-14.803,40.005-16.09,59.07-2.196,16.167,11.783,28.325,27.041,35.024,45.873,7.051,19.823,3.988,38.067-12.543,53.36-9.716,8.988-22.218,11.682-35.242,7.491-10.07-3.241-19.538-3.876-29.84.104-10.665,4.12-21.24,1.282-30.596-5.242-2.674-1.865-5.051-4.157-7.564-6.254-11.053-14.039-13.813-29.809-9.803-46.991v.002h0ZM214.841,339.222c2.624,10.132,4.86,20.39,8.096,30.322,1.047,3.212,4.242,6.428,7.297,8.125,5.262,2.924,10.608,1.315,14.977-2.719,4.322-3.991,5.969-10.16,3.258-15.422-4.622-8.972-9.85-17.634-14.916-26.373-2.59-4.467-6.22-7.47-11.765-6.294-3.902.828-5.822,5.186-6.946,12.36h0ZM188.726,339.663c0-1.165.015-2.33-.003-3.495-.064-4.085-1.216-7.866-5.36-9.227-3.924-1.289-7.37.702-9.322,4.081-5.518,9.553-11.257,19.04-15.869,29.033-3.3,7.151,1.248,15.634,8.383,18.255,6.537,2.402,13.187-.949,15.654-8.918"/>
  <path class="cls-5" d="M61.635,208.674c-19.556-19.06-32.445-41.616-36.056-68.995-.562-4.262-.783-8.57-1.161-12.856.136-2.767.273-5.533.432-8.772,2.997,0,5.638.198,8.239-.039,6.58-.599,13.305-.713,19.684-2.23,26.281-6.251,47.259-20.86,63.958-41.878.695-.652,1.39-1.305,2.085-1.957l7.038-6.879-.26-.184.252.196c1.251-1.057,2.503-2.113,3.754-3.17,5.333-3.003,10.666-6.006,15.999-9.009,2.649-.642,5.298-1.284,7.947-1.926,2.679-.102,5.358-.204,8.037-.306,13.279,1.256,24.888,6.186,34.369,15.718,1.371,1.378,2.497,2.998,3.737,4.507-1.575-.899-3.168-1.768-4.723-2.7-14.408-8.633-29.245-11.001-44.389-2.208-10.41,6.045-16.133,15.916-18.749,27.24-3.25,14.069-4.785,28.558-8.443,42.504-3.737,14.244-9.147,28.049-13.825,42.046-7.172.69-14.412.985-21.498,2.184-6.564,1.111-13.066,2.877-19.397,4.959-3.863,1.271-5.715,4.538-5.804,8.91-.101,4.955-.791,9.898-1.225,14.846h-.001Z"/>
  <path class="cls-1" d="M553.518,214.892c11.32-.17,21.419-3.72,30.57-10.645-10.185-7.322-20.03-14.399-29.875-21.477.241-.406.481-.812.722-1.218,5.988-.899,12.074-1.385,17.949-2.769,26.45-6.23,46.423-22.022,61.709-43.795,5.058-7.205,7.99-15.902,11.895-23.917,11.745-.673,11.583-.678,11.21,10.671-.893,27.163-10.04,51.422-27.166,72.193-8.153,9.889-18.593,17.892-27.997,26.749-5.311,3.331-10.543,6.799-15.983,9.904-1.492.851-4.081,1.462-5.354.743-9.342-5.274-18.478-10.915-27.679-16.44h0Z"/>
  <path class="cls-1" d="M109.559,177.775c4.678-13.997,10.089-27.802,13.825-42.046,3.658-13.945,5.193-28.434,8.443-42.504,2.616-11.324,8.338-21.195,18.749-27.24,15.144-8.794,29.981-6.425,44.389,2.208,1.555.932,3.148,1.802,4.723,2.7,3.807,4.935,7.714,9.801,11.311,14.885.52.735.007,3.053-.795,3.736-5.793,4.929-11.785,9.625-17.777,14.445-3.971-5.559-7.374-11.076-11.523-15.96-6.7-7.886-16.385-9.988-22.276-3.943-4.16,4.268-7.474,10.397-8.749,16.224-2.612,11.936-3.37,24.265-5.319,36.363-2.074,12.872-4.543,25.684-7.164,38.456-.235,1.143-2.827,2.509-4.364,2.56-7.817.258-15.646.118-23.472.117h-.001Z"/>
  <path class="cls-5" d="M148.654,424.829c.084,1.559-.235,3.279.314,4.653,6.965,17.452,16.523,33.32,29.054,47.387,4.018,4.511,7.686,9.334,11.515,14.014-36.125-25.53-64.729-57.373-81.415-98.8-10.193-25.306-14.099-51.95-14.377-79.157,1.058.734,2.286,1.308,3.146,2.227,7.356,7.853,16.441,12.724,26.659,15.693l-3.819,11.998c-3.68,11.103-3.959,22.576-2.66,33.972,1.226,10.76,5.368,20.617,12.374,29.087,4.025,4.355,8.051,8.71,12.076,13.066,1.024.949,2.049,1.899,3.073,2.848,1.353,1.004,2.707,2.008,4.06,3.011h0Z"/>
  <path class="cls-1" d="M449.767,290.806c-1.414,5.187-2.016,10.781-4.382,15.489-9.793,19.481-26.322,30.746-47.261,34.77-27.233,5.234-52.945,1.222-75.553-16.178-.783-.603-1.46-1.345-2.185-2.022,4.181.894,8.34,1.911,12.551,2.615,1.464.244,3.057-.288,4.591-.465,29.61,7.514,58.441,6.75,85.788-8.423,11.112-6.165,19.366-15.412,26.451-25.786h0Z"/>
  <path class="cls-6" d="M129.445,405.904c-7.006-8.47-11.148-18.327-12.374-29.087-1.299-11.396-1.021-22.869,2.66-33.972,4.29-.745,7.039.562,9.019,4.875,2.364,5.15,7.425,3.449,11.725,3.148-4.009,17.182-1.25,32.951,9.803,46.991-.042,1.206-.592,2.762-.042,3.562,3.42,4.976,2.944,9.716-1.231,13.938-1.803,1.823-2.96,4.286-4.41,6.459-1.024-.949-2.049-1.899-3.073-2.848.335-1.337,1.235-2.837.904-3.983-1.32-4.584-7.921-9.015-12.98-9.083h-.001Z"/>
  <path class="cls-2" d="M313.271,247.952c1.615-19.491,10.981-35.275,29.308-45.162,5.023-2.71,10.569-4.586,16.052-6.268,4.595-1.41,9.929,1.537,10.758,5.619.933,4.592-1.303,7.453-5.647,9.096-13.033,4.929-23.641,12.718-28.926,26.146-1.551,3.941-2.22,8.233-3.225,12.38-.309,1.275-.297,2.627-.596,3.905-1.562,6.667-4.904,9.76-9.791,9.142-4.269-.54-7.796-5.539-7.93-11.252-.019-.831-.003-1.663-.003-3.606h0Z"/>
  <path class="cls-1" d="M423.729,123.647c18.578-4.063,32.496,5.959,46.537,15.494,1.156.785,1.997,2.238,2.637,3.55,6.199,12.704,12.326,25.443,18.458,38.18.262.544.363,1.165.722,2.355-7.507-1.884-14.51-3.641-21.512-5.398-9.389-15.74-20.914-29.709-34.714-41.778"/>
  <path class="cls-2" d="M101.552,242.916c2.203-22.51,18.906-40.645,41.004-44.257,1.603-.262,3.354-.145,4.952.194,4.088.869,6.864,3.05,7.087,7.658.224,4.633-2.28,7.188-6.383,8.183-16.793,4.073-26.741,14.148-28.823,31.678-.691,5.818-4.809,8.973-9.744,8.45-4.796-.508-8.182-5.49-8.092-11.906h0Z"/>
  <path class="cls-1" d="M288.721,388.794c13.926,2.55,27.048.3,39.397-6.592,3.186-1.778,6.388-3.527,9.582-5.289-5.175,9.734-13.613,16.164-22.739,21.63-10.784,6.459-22.483,10.012-35.286,9.192,3.123-6.54,6.084-12.74,9.046-18.941h0Z"/>
  <path class="cls-1" d="M123.549,330.846c-10.217-2.969-19.303-7.84-26.659-15.693-.86-.919-2.088-1.493-3.146-2.227v-8.827c11.091,7.067,21.932,13.975,33.177,21.14-.885,1.471-2.128,3.539-3.372,5.607h0Z"/>
  <path class="cls-2" d="M459.246,196.845c1.653,0,3.586-.541,4.89.133,1.769.915,4.247,2.777,4.228,4.203-.021,1.536-2.355,3.932-4.074,4.355-2.964.73-6.368.776-9.326.047-2.057-.507-4.937-2.585-5.222-4.326-.554-3.383,2.263-4.64,5.538-4.428,1.317.086,2.644.014,3.966.015h0Z"/>
  <path class="cls-1" d="M337.528,325.015c-1.534.178-3.128.71-4.591.465-4.211-.703-8.37-1.721-12.551-2.615-5.248-5.705-10.495-11.411-15.742-17.116,9.741,8.505,20.146,15.877,32.885,19.265h-.001Z"/>
  <path class="cls-6" d="M116.731,73.903c-16.699,21.018-37.677,35.627-63.958,41.878-6.379,1.517-13.104,1.631-19.684,2.23-2.601.237-5.242.039-8.239.039-.16,3.239-.296,6.005-.432,8.772-1.089-5.077-3.872-10.515,3.683-13.503-5.484-3.043-13.728-1.851-17.673,1.632-1.611,1.422-3.862,2.284-5.969,2.879-.656.185-2.604-1.359-2.586-2.078.14-5.744.393-11.505,1.059-17.209.411-3.52,3.02-4.787,6.514-4.715,10.762.221,21.526.367,32.29.369,1.341,0,2.635-1.294,4.031-1.552,3.342-.617,6.729-.992,10.104-1.423.805-.103,1.867.285,2.409-.107,4.158-3.012,8.216-6.16,12.306-9.266,4.265-2.791,8.503-5.625,12.814-8.343,1.157-.729,2.537-1.105,3.814-1.644.452,1.354.8,2.754,1.376,4.052,1.408,3.173,2.449,6.69,4.593,9.279,1.07,1.292,4.267,1.221,6.432,1.021.94-.087,2.185-1.98,2.371-3.195.11-.72-1.429-2.086-2.485-2.497-1.501-.585-3.477-.146-4.809-.912-1.299-.746-2.814-2.457-2.814-3.744,0-1.296,1.76-3.707,2.727-3.697,4.368.047,8.722.846,13.094,1.244,3.001.273,6.021.334,9.033.49,0,0,0,0-.001,0Z"/>
  <path class="cls-6" d="M461.579,29.59c-10.982,3.362-19.718,10.18-27.755,18.064-2.081,2.041-4.116,4.129-6.172,6.195-1.481-.144-3.022-.073-4.43-.473-3.609-1.024-6.19-2.426-3.279-6.927,2.597-4.016,4.559-8.443,7-13.066.375.351.065-.013-.313-.281-1.982-1.406-3.981-2.787-5.975-4.177,3.196-3.012,6.379-6.037,9.625-8.995.158-.144.958.202,1.293.504,2.24,2.013,4.435,4.077,7.048,6.497h-5.055c1.314,3.824,3.124,4.411,6.424,2.67,4.291-2.264,8.532-4.855,13.113-6.278,4.87-1.512,7.061,2.232,8.476,6.265v.002h0Z"/>
  <path class="cls-6" d="M153.545,50.974c-2.649.642-5.298,1.284-7.947,1.926.383-1.373.766-2.747,1.087-3.901-2.872-.578-5.506-.804-7.91-1.669-2.981-1.072-3.19-3.012-.875-5.278,3.191-3.123,16.177-5.081,19.927-2.562,1.257.844,2.628,3.179,2.283,4.336-.455,1.523-2.379,2.907-3.991,3.7-1.629.801-4.529.118-2.575,3.449h0Z"/>
  <path class="cls-6" d="M125.911,37.396c-1.491,3.315-2.174,7.692-4.716,9.627-2.249,1.712-6.568.706-9.973.9-.235-.533-.47-1.066-.705-1.599,4.72-3.43,9.44-6.859,14.16-10.289.411.454.822.907,1.234,1.361Z"/>
  <path class="cls-6" d="M154.58,26.847c7.694-2.421,14.957.307,22.379,2.028-3.614,1.242-7.162,3.111-10.865,3.495-2.3.238-4.88-1.678-7.244-2.814-1.509-.725-2.853-1.794-4.27-2.708h0Z"/>
  <path class="cls-6" d="M154.58,26.847c-1.296,4.029-4.304,5.613-8.289,5.988-2.122.199-4.207.88-6.327.989-1.245.064-2.526-.568-3.79-.886.765-1.128,1.356-3.041,2.323-3.255,5.31-1.175,10.712-1.934,16.083-2.836h0Z"/>
  <path class="cls-6" d="M125.854,65.067l-7.038,6.879c-2.782-3.626-2.09-5.967,2.164-6.79,1.572-.304,3.246-.075,4.874-.089Z"/>
  <path class="cls-6" d="M129.6,61.909c-1.251,1.057-2.503,2.113-3.754,3.17-.275-1.104-1.014-2.361-.711-3.273.411-1.239,1.619-2.213,2.485-3.301.66,1.135,1.32,2.269,1.98,3.404Z"/>
  <path class="cls-6" d="M328.936,69.44c1.552-.564,3.104-1.127,4.657-1.691.121.906.546,2.504.314,2.606-1.365.598-2.883.848-4.35,1.216-.207-.71-.414-1.42-.621-2.131Z"/>
  <path class="cls-7" d="M214.841,339.222c1.124-7.175,3.044-11.532,6.946-12.36,5.545-1.177,9.175,1.826,11.765,6.294,5.067,8.738,10.294,17.401,14.916,26.373,2.711,5.262,1.064,11.431-3.258,15.422-4.369,4.034-9.714,5.643-14.977,2.719-3.055-1.698-6.25-4.913-7.297-8.125-3.236-9.932-5.472-20.19-8.096-30.322h0Z"/>
  <path class="cls-4" d="M182.209,369.393c-2.466,7.969-9.116,11.32-15.654,8.918-7.135-2.622-11.683-11.104-8.383-18.255,4.611-9.993,10.351-19.48,15.869-29.033,1.952-3.38,5.397-5.371,9.322-4.081,4.144,1.361,5.296,5.142,5.36,9.227.018,1.165.003,2.33.003,3.495"/>
  <path class="cls-6" d="M129.445,405.904c5.059.068,11.66,4.499,12.98,9.083.33,1.146-.57,2.646-.904,3.983-4.025-4.355-8.051-8.71-12.076-13.066h0Z"/>
  <path class="cls-2" d="M76.178,196.751c2.243.064,3.082.081,3.38.083.035,0,.421.002.938.005.087,0,.141,0,.206.001,4.371.024,5.013.049,5.843.411.185.081,2.545,1.129,2.91,3.396.144.896-.078,1.645-.214,2.005-.77,2.037-2.984,2.746-3.717,2.98-.776.248-1.464.284-2.808.346-3.248.149-5.292.218-7.357-.912-.617-.338-1.246-.691-1.778-1.423-1.034-1.423-1.174-3.551-.26-5.035.512-.83,1.241-1.276,1.342-1.336.604-.36,1.174-.477,1.514-.521Z"/>
</svg>