<?xml version="1.0" encoding="utf-8"?>
<!-- Generator: Adobe Illustrator 28.3.0, SVG Export Plug-In . SVG Version: 6.00 Build 0)  -->
<svg version="1.1" id="Layer_1" xmlns="http://www.w3.org/2000/svg" xmlns:xlink="http://www.w3.org/1999/xlink" x="0px" y="0px"
	 width="1070px" height="1488px" viewBox="0 0 1070 1488" style="enable-background:new 0 0 1070 1488;" xml:space="preserve">
<style type="text/css">
	.st0{fill:#FFFFFF;}
</style>
<g>
	<path class="st0" d="M74.3,1.9c1.5-0.6,2.8,3,3.1,5.5c1.7,13.5,0.2,31.4-0.6,45.3c-1.4,25.6-0.9,50.9-1,76.5
		c-0.5,61.5,16,121.8,17.5,183.1c-1.3,16.9-9.6,31.6-18.2,46c-47.2,85.1,7.4,168.9,33.7,251.7c0.4,1.3,2.3,1.4,2.8,0.1
		c0.8-2,1.1-4.7,1.4-6.2c6.7-36.5,25.2-53.8,50.8-75.2c10.4-8.7,22-18.5,31.5-28.9c68.3-93.8-45.5-213.3-26.9-319.4
		c4.2-47.5,19.4-94.1,45.1-134.3c4.8-7,13.6-22.3,18.6-21.5c3,1.4,0,6.7-1,8.9c-4.5,8.7-9.3,17.3-13.7,26
		c-22.9,43.7-30.9,93.8-28.9,142.8c3.6,92,75.1,177.1,56.8,271c-8.7,41.3-48.6,65.2-76.6,102.8c-6.6,10.8-10.4,23.2-11.8,35.8
		c-3.1,29.6,7.6,61.1,27,83.6c4.4,4.7,9.8,13.1,16.9,7.9c16.5-11.2,30.1-27,35.4-46.9c3-9.4,3.8-19.8,6.6-29.3
		c7.1-23.9,29.8-40.5,33.6-65.7c2-22-4.2-43.7-4.6-65.7c-1.2-22.2,4.1-44.5,13.2-64.7c1.9-5.2,15.3-28.9,14.3-14.3
		c-1.1,6.4-3.8,12.6-5.7,18.8c-23.2,65.4,26.2,113.5-7.5,164.5c-28.3,35.6-14.9,74.4-42.6,102.3c-6.5,7-13.3,13.4-20.2,20.1
		c-4.9,4.5-5.1,8.8,0.1,13.1c50.1,44.8,22.1,4.3,91.2,24.5c28.5,11.4,57.9,4.7,89.4-25c6.7-6.2,11.3-11.7,17.4-18.1
		c22.3-24.1,51.5-40.7,84.2-33.6c8.4,1.5,13.4-4,16.7-11.3c4.6-9.3,6.5-19.5,6.9-30c-0.5-55.8-19.4-109.9-18.2-165.9
		c0.4-17.6-1.2-35.3-4.5-52.5c-6.1-33.2-16.8-65.5-22.2-98.8c-9.6-78.5-10.9-163.5,24-235.3c24.4-44.4,69.5-72.1,120.1-75
		c28-1.6,57.7,4.4,86.4,19.1c1,0.6,2,1.2,2.9,1.7c1.5,1.1,2.4,2,2.4,2.7c-0.4,1.3-2.9,1.1-6.2,0.7
		C559.1,6.4,509.1,159.9,511.4,291.3c0.9,20,2.8,40.2,11.1,58.6c3,7,6.9,13,15.4,8c13-7.3,27.5-26.3,33.9-35.8
		c8-12.5,13.6-26.6,16.6-41.2c1.3-5.4,1.2-11.1,3-16.3c0.9-2.1,2.1-3.1,3.4-2.4c1.3,0.8,2.3,2.7,2.7,4.4c3.7,12.8,2.4,26.8-1.1,40.7
		c-5.6,21.3-15.5,41.2-24.2,60.9c-13.9,28.1-22.7,58.5-26.4,89.6c-1.1,8.7-1.8,17.4-2.2,26.1c-6,69.7,30,140.3,5.8,208.4
		c-4.8,11.5-3.5,17.2,2,27.9c7.9,17.5,6.3,37.5,3.4,56.2c-0.3,2.6-0.6,6.4,2.3,7.2c4.5,0.8,10.2-2.1,14.8-3.1
		c5.3-1.5,10.8-3,16.1-3.9c23.5-3.5,45.2,2.2,58.6-23c4.7-8.5,7-17.8,10.6-26.8c12.6-34.1,43.5-62.5,80-41.1
		c5.4,3.2,11.3,4.8,16.9,1.5c26.1-16.8,61.2-4.1,76.5,21.7c3.2,4.7,7.7,10.6,13,12.1c14.1,4.7,29.5-16.2,33.4-30.8
		c1.9-6.3,2.1-12.5,2.7-19c1.5-17.9,1.4-36.9-5-53.7c-4.7-13.1-14.4-23.3-24-33.1c-6.1-6.2-12.5-11.9-19.2-17.4
		c-99.6-78.4-21.1-216.5,31.4-307.1c30.8-51.9,73.6-99.8,82.4-161.5c0.7-2.7,1.9-4.6,2.9-4.6c1.1-0.1,1.9,1.8,2.2,4.5
		c4.7,63.3-39.5,121.9-66.8,175.7c-37.4,71.6-92.9,158.8-56.2,236.9c13.4,24.9,39.3,38.6,59.3,56.4c40.8,34.4,42.1,107.2,13,150.7
		c-6,8-3,12.3,3.7,17.9c11,10,20.4,21.5,27.9,34.4c2.1,3.7,4.1,7.4,6.1,11.2c2.5,3.8,5.3,13.2,8.7,12.2c1.3-1.4,1.5-4.3,1.6-6.3
		c0.1-5.3,0.2-10.7,0.4-16c0.8-25.2,2.6-50.3,6.2-75.3c4-43.3,26.4-87.5,11.8-130.4c-26.6-68.3-94.2-85.6-74.2-173.6
		c17.3-91.3,155.1-177.9,133.1-263.9C1001.2,35.1,883.1,9.7,859.6,4.2c-1.7-0.4-4.2-1.1-5.3-1.9c-0.9-0.6-1-1.2-0.3-1.7
		c1-0.5,2.7-0.5,4.2-0.5c87.9,1,200.1,49,211.1,141.3c6.8,100.4-119.7,167-128.9,265.6c-3.1,76.1,112.1,80.5,89.2,192.7
		c-2.3,11.6-5.7,23.2-9.2,34.6c-49,144.5-24.2,223.3,35.1,357.4c14.8,32.6,19.3,70.3,6.9,104.3c-4.7,14.1-14.1,25.6-21.2,38.5
		c-11.2,20.1-19.1,41.6-24.9,63.8c-22.1,90.1-16.9,185.8-23.9,277.9c-0.2,2.4-1,10.2-2.2,10.4c-0.8,0.3-2.5-7.4-2.5-7.5
		c-2.6-12.9-3.7-27.2-4-40.6c-0.6-20.2-4.6-86.7-4.6-130.1c0.1-53.4,0.2-106.9,2-160.2c1.9-15.4,7.3-29.8,14.9-43.2
		c8.1-12.9,14.5-27,16.8-42.1c2.8-16.5,1.8-33.6-2.4-49.7c-4.2-15.5-10.8-29.9-16.4-44.8c-7.2-18.4-14.4-36.8-21.3-55.3
		c-3.2-8.6-6.4-17.3-9.4-26c-2.2-6.2-4.3-12.4-6.4-18.7c-0.5-1.6-1.4-3.8-2.5-4.9c-2.4-1.7-3.7,3.1-4.4,5.3
		c-5.6,22.6-14.8,40.3-26.2,52.3c-19.6,21.3-46,34.9-66.5,57.4c-54.9,75.4,15.6,165,32,243c2.2,10.8,4.1,21.6,5.6,32.6
		c4.8,39.6-1.9,80.6-21.2,115.7c-7.1,13.2-14.1,26.4-21.2,39.5c-9.5,17.7-19.2,35.2-28.7,52.9c-1.1,2-2.4,4.2-3.8,5.8
		c-1.9,2.3-4.5,3-4.7-0.5c0.7-8.1,6-15.4,8.8-23c4.1-9.8,8.4-19.5,12.5-29.3c16.6-39.2,34.5-79.4,36.4-122.6
		c7.7-104.7-83.8-196.2-57.6-300.8c8.1-26.2,27.7-45.7,47.1-63.1c26-23.6,49.2-45.1,46.3-85c-2.4-29.4-16-59.5-35.7-81.7
		c-3.5-4-7.1-8.4-11.7-10.7c-5.3-2.7-11.9-2.7-17.6-4.1c-7.2-1.5-14.2-4.5-19.4-10c-1.9-1.8-3.5-4-4.9-6
		c-7.8-12.1-19.1-29.4-32.8-30.4c-8.5-0.8-16.5,5.2-22.1,11.1c-20.5,23.4-23.6,56.6-26.9,86.3c-3.5,52,34.7,93.4,43.1,143.2
		c6.2,32.5,4.5,67.2-6.9,98.3c-3.2,7.8-6.1,16.2-11.3,22.8c-4.9,4-2.5-6.8-1.7-8.8c5.6-17.9,8.3-36.2,8.6-55
		c-0.6-109.5-89.8-138.6-45.4-265.6c2.6-10,2.9-28.4-5.2-33.8c-13.8-9.9-34.1,8.4-40.7,23.5c-4.4,9.3-7.4,20.1-11.5,29.4
		c-25.8,65.7-86.8,5.3-127.2,74c-10.3,18.5-9.5,34.9-6.1,55c6.7,39.8,23.2,78.3,22.6,119c1.2,22.9,0.4,46.3,4.2,68.7
		c5.7,27,16.3,49.6,22.4,77.4c2.7,11.9,4.2,24.5,5.2,36.4c7.1,78.7,7.3,165.2-40.2,232.3c-14,19.3-32.3,36.1-54.2,45.6
		c-25.2,10.8-61,12.6-87.3,6.4c-3.3-1.2-8.1-1.9-9.3-4.3c-0.6-2.3,4-2.4,5.7-2.7c149.9-4.2,176.9-171.5,161.7-295.8
		c-1.7-15.3-4.6-30.7-10.5-45c-2.3-5.6-5-11.1-8.4-16.2c-1.1-1.5-2.6-3.6-4.5-4c-2.5-0.7-4.8,2.5-6.1,4.6
		c-14.1,23.3-29.1,46.2-41.2,70.7c-3.7,7.5-7.4,14.8-10.8,22.6c-1.8,3.7-3.7,8.4-6.8,10.5c-9.5,3,8-40.4,11.2-45.5
		c11.8-25.2,28.1-48.1,37.6-74.1c4.6-14,4.8-28.8,5.5-43.3c2.2-40.5-1.5-81-13.4-119.8c-1.5-5.7-2.7-11.4-4.4-17
		c-6.4-22.1-16.3-45.7-8.7-68.6c7.4-22.4,25.1-40.7,27.5-64.5c4.4-26.8-2.9-62.5-32-70.5c-68-12.7-79.3,93.8-175.5,82.5
		c-13-1-25.4-6.3-38.4-7.4c-5.9-0.5-12.3,0.7-16.8,4.6c-17.2,17.1,3,50.7,26.2,54.7c15.5,2.3,31.3,1.7,46.3,6.8
		c47.8,12.5,62,74.2,23.3,104.3c-1.9,1.3-3.4,2.4-5.3,2.2c-0.5-0.1-0.8-0.5-1-0.9c-0.7-2.9,2.9-8.8,4.2-12.3
		c5.5-13.3,6.8-26.6,2.9-40.6c-18.2-75.1-126.5-7.5-125.2-105.7c-0.4-8.3-4.9-13.8-11-18.5c-7.1-6-14.4-12.1-21.7-18
		c-3.7-3.3-9.3-5.7-13.4-1.5c-9.7,11-15,25.9-18.3,40.9c-3.7,17.8-2.7,36,2.2,53.3c13.4,44,63,58.3,87.2,94c4,5.9,7.4,12.4,9.8,19.6
		c31,111-31.5,219.3-93.4,307.9c-25.3,37.8-49.7,79.5-43.3,127c0.3,2.5,0.7,5.4,0.4,7.8c-0.3,1.8-0.9,2.9-1.9,3.1
		c-0.5,0.1-1.1,0-1.5-0.3c-2-0.9-4-4.8-5.2-7.7c-3.9-9.8-4-20.7-4.7-31.2c-1.3-17.1,1.5-34.4,6.1-50.8
		c12.7-44.7,40.7-83.1,64.4-122.3c37.7-64.6,72.3-141.7,52.6-217.4c-4.4-17.3-15.4-31.7-28.4-43.5c-16-14.6-34.4-26.9-49.2-42.6
		c-37.1-38.9-39.3-102.1-9.1-145.9c3.4-5.8,11.9-12.6,6.6-19.7c-16.5-16.3-32.3-33.1-43.6-53.5c-0.7-1.1-1.3-2.1-2-2.8l0,0
		c-0.9-1.1-2.7-0.3-2.6,1.1c7.1,108.3-82.2,223.6,27.9,296.6c4.1,2.9,8,5.6,11.8,8.8c38.1,29.2,44.8,73.5,27.2,116.5
		c-31.1,70-90.2,123-125.2,190.6c-10.9,22.2-14,48.4-9.1,72.3c6.4,33.4,29.1,61.6,59.2,77.7c24.7,15.2,64.6,25.3,94.6,46.1
		c1.3,1.4,3.6,3.3,3.1,5.2c-0.3,0.9-1.8,1.3-3.8,1.2c-34.6-6.2-70.6-15.6-104.1-25.9C36,1442.1-13.7,1372.3,4,1304.8
		c16.5-64.6,74.2-122.6,112.5-178c4.4-6.5,8.9-12.8,13.1-19.6c11.7-19.4,17.5-42.9,14.6-65.3c-5.1-35.1-22.9-44.9-49.9-63.2
		c-42.7-29.8-59.9-70.3-52.9-121.6c3.8-28.8,13.9-56.8,20-85.2c6.3-24.1,10.6-49.7,9.8-74.6C69.3,627.7,39.3,566,17.6,499
		c-7.1-23.1-13-47.5-13.9-71.8c-4.7-75,53.1-102,54.1-171.8c0.8-13.6,0.4-27.3-0.2-40.9c-2.7-46-3.9-92.3,1.7-138.1
		c2.1-19.2,4.1-38.2,8.9-57.2c1.1-4.7,2.7-10.3,3.9-14.1C72.5,4,73,2.5,74.3,1.9L74.3,1.9z"/>
</g>
</svg>
